<svg width="61" height="189" xmlns="http://www.w3.org/2000/svg" xmlns:xlink="http://www.w3.org/1999/xlink" xml:space="preserve" overflow="hidden"><defs><clipPath id="clip0"><rect x="715" y="474" width="61" height="189"/></clipPath></defs><g clip-path="url(#clip0)" transform="translate(-715 -474)"><path d="M-2928.14 137.851C-2930.62 137.789-2934.86 137.04-2936.31 135.645-2936.67 135.298-2936.36 131.913-2936.27 130.233-2936.43 126.907-2933.93 123.243-2934.93 119.845-2935.13 119.145-2933.84 116.951-2933.45 115.343-2934.21 115.213-2934.55 115.219-2935.29 114.996-2935.29 114.996-2935.59 114.581-2935.66 114.344-2935.25 108.768-2934.74 103.765-2933.93 98.3012-2932.32 87.5982-2929.94 77.1303-2926.49 66.8885-2925.41 63.728-2924.68 60.5991-2924.63 57.2824-2924.63 57.155-2924.74 57.0509-2924.87 57.0559-2930.33 57.2828-2929.52 49.4297-2930.04 43.7115-2930.08 43.3014-2930.3 43.5162-2930.53 43.3647L-2930.66 43.3022C-2933.15 36.335-2933.7 28.8841-2933.53 21.3703-2933.38 14.8423-2932.69 8.26688-2932.26 1.91997-2931.59-7.44302-2931.6-10.4745-2929.07-12.1293-2927.1-13.4161-2923.59-13.8703-2917.04-15.8227-2917.71-16.5329-2918.04-17.9313-2917.19-18.6814-2916.82-18.661-2916.31-18.2989-2915.94-18.1153-2915.36-19.3192-2915.25-19.6106-2914.92-20.842L-2914.91-21.6193C-2914.58-25.3081-2908.84-25.9421-2906.32-24.0954-2905.07-23.0105-2904.81-21.4182-2904.7-19.8433-2904.63-18.7805-2904.72-17.7331-2904.24-16.8268-2904.24-16.8268-2902.02-15.1945-2901.03-14.8715-2897.41-13.6908-2892-13.8112-2890.76-9.47581-2889.02-2.60812-2888.96 4.78828-2887.51 11.7172-2885.73 19.7139-2880.96 27.0395-2880.76 35.3796-2880.83 36.2855-2880.28 41.8893-2881.47 42.5729L-2881.92 42.6986C-2881.38 44.3638-2881.94 46.4927-2882.23 48.0759-2882.77 50.6786-2884.43 55.1738-2887.83 53.4137-2890.16 66.2133-2894.74 79.0224-2896.78 91.8756-2897.74 97.9636-2898.14 103.983-2897.53 110.036-2897.62 110.524-2897.11 112.706-2897.52 112.775-2897.74 112.813-2898.03 112.843-2898.25 112.879-2898.46 112.911-2898.61 113.105-2898.61 113.31-2898.56 114.623-2897.97 117.437-2897.96 117.662-2894.68 117.537-2892.93 120.917-2890.65 122.72-2889.04 124.14-2887.32 125.424-2885.51 126.558-2884.18 127.279-2882.5 128.157-2882.79 129.844-2882.72 129.833-2882.2 129.91-2882.21 129.913-2881.76 131.499-2882.52 132.564-2884.08 133.091-2886.75 133.998-2891.33 133.587-2892.91 133.466-2895.94 133.06-2898.59 132.278-2901.47 131.384-2902.45 131.079-2903.56 130.69-2904.66 130.232-2905.58 129.846-2906.24 128.777-2906.4 127.943-2906.5 127.345-2906.11 126.801-2906.35 126.194-2906.56 125.753-2906.85 124.769-2906.99 124.029-2907.33 121.826-2907.52 118.911-2906.19 117.077-2905.24 115.773-2905.68 114.663-2905.49 113.339-2906.88 113.203-2908.31 113.258-2909.6 112.706-2910.28 112.415-2910 111.378-2910.13 110.883-2910.41 106.45-2910.45 102.217-2910.42 97.8025-2910.3 90.3828-2908.66 82.5006-2907.34 75.1974-2906.87 70.099-2906.69 66.1221-2906.59 61.0016L-2906.68 59.7944C-2906.83 59.5462-2907.12 59.5754-2907.22 59.8443-2910.9 69.3801-2914.38 79.1015-2917.29 88.7688-2919.9 97.437-2922.01 106.065-2923.83 114.422-2924.37 115.329-2926.18 114.915-2926.14 115.443-2926.02 117.472-2927.39 119.521-2926.84 121.457-2926.77 121.706-2926.41 122.739-2926.12 123.136-2924.18 125.799-2923.34 128.629-2922.58 131.842L-2921.92 131.87C-2921.09 132.439-2921.22 133.812-2921.14 134.854-2920.93 137.504-2926.29 137.686-2928.14 137.851ZM-2923.11 8.17113C-2925.98 19.3209-2923.68 31.5518-2923.73 42.9446L-2923.64 43.0204-2923.78 43.0924C-2923.84 43.3951-2923.92 43.6936-2924.02 43.987-2923.55 44.4371-2922.94 44.9957-2922.44 45.4582-2922.9 42.5825-2921.47 39.9019-2920.62 37.233-2920.9 36.8496-2922.07 36.4008-2922.05 35.9233-2921.9 32.5117-2921.47 28.4974-2921.2 25.0587-2920.97 22.5118-2920.39 8.17279-2923.11 8.17113Z" fill="#FFFFFF" transform="matrix(1.00362 0 0 1 3664.73 522.708)"/><path d="M-2927.86 137.811C-2930.2 137.741-2935.73 136.738-2936.4 135.54-2937 134.458-2936.2 132.331-2936.25 130.732-2936.16 128.398-2935.52 126.038-2935 123.78L-2934.67 122.614C-2932.97 121.572-2931.05 119.893-2927.7 121.112-2927.21 121.292-2926.82 121.684-2926.59 122.161-2925.9 123.639-2925.07 124.666-2924.47 126.048-2923.76 127.844-2923.21 129.441-2922.8 131.289-2922.75 131.522-2922.69 131.997-2922.46 131.91-2921.41 131.502-2920.98 133.419-2921.09 134.804-2920.89 137.428-2925.95 137.741-2927.86 137.811ZM-2889.2 133.702C-2894.65 133.647-2903.2 131.107-2904.56 130.168-2905.53 129.5-2906.2 128.928-2906.35 127.957-2906.4 127.651-2906.27 126.605-2906.36 126.361-2907.32 123.724-2907.83 119.246-2906.13 116.953-2906.13 116.953-2905.74 116.529-2905.58 116.592-2905.41 116.654-2905.5 116.945-2905.44 117.156-2904.88 118.977-2903.41 121.453-2900.94 120.005-2900.02 119.464-2899.28 117.757-2898.14 117.744-2897.35 117.714-2895.43 117.802-2894.19 119.242-2892.12 121.136-2890.38 123.26-2888.02 124.883-2886.3 126.517-2882.75 126.864-2882.66 129.637-2882.66 129.715-2882.65 129.844-2882.57 129.845-2881.94 129.851-2881.86 130.873-2882.11 131.523-2882.87 133.495-2887.72 133.633-2889.2 133.702Z" fill="#FFFFFF" transform="matrix(1.00362 0 0 1 3664.73 522.708)"/><path d="M-2920.56 37.0024C-2916.29 40.0268-2910.08 44.6273-2906.63 46.5843-2906.05 46.6996-2905.56 46.0944-2904.97 45.6406-2903.33 44.4325-2901.2 42.8909-2899.78 41.7827-2899.56 41.896-2899.04 41.9921-2898.86 41.8381-2897.83 42.9542-2896.85 43.9704-2895.83 45.0852-2895.08 45.7613-2894.28 47.531-2893.28 46.4728-2891.85 44.9379-2889.47 42.9505-2887.84 41.3385-2887.59 41.7469-2886.89 41.8481-2886.57 41.6162-2887.09 53.8425-2891 66.4739-2894.23 79.1111-2897.07 90.2625-2898.84 101.618-2897.2 112.498-2900.85 113.136-2904.98 113.182-2908.33 112.979-2908.73 112.942-2909.58 113.005-2909.9 112.415-2910.06 112.132-2909.94 111.51-2909.93 111.166-2909.66 105.206-2910.75 96.1485-2909.73 90.3303-2908.76 80.7321-2905.21 69.8384-2906.68 60.2215-2906.75 59.7927-2906.74 59.5762-2906.87 59.5242-2906.99 59.4721-2908.75 62.947-2911.1 69.8139-2913.19 75.9193-2915.76 83.978-2918.23 92.2815-2920.51 99.9094-2922.31 108.114-2923.95 114.83-2926.79 115.489-2929.97 115.266-2934.07 115.178-2934.42 115.1-2935.26 115.099-2935.6 115.003-2935.14 106.983-2934.03 98.6001-2932.28 90.0177-2930.67 82.1426-2928.49 74.1005-2926.16 65.9972-2925.15 62.2168-2924.82 60.3892-2924.62 57.0747-2923.55 57.1867-2922.23 56.6646-2921.61 55.8457-2921.49 55.693-2921.3 55.6505-2921.12 55.6942-2920.77 55.7771-2920.48 55.5951-2920.2 55.0906-2919.65 53.9179-2919.76 52.6927-2920.12 51.2814-2920.21 50.9122-2919.9 50.5775-2919.53 50.6029-2918.5 50.672-2917.59 50.0983-2918.33 48.9497-2919.61 47.8249-2921.49 46.2163-2922.6 45.1198-2922.75 42.5483-2921.54 39.6047-2920.56 37.0024Z" fill="#FFFFFF" transform="matrix(1.00362 0 0 1 3664.73 522.708)"/><path d="M-2880.26 37.4566C-2880.41 33.3839-2881.01 29.0694-2882.3 25.4105-2883.57 21.1996-2885.82 17.3168-2886.78 12.974-2888.59 5.48017-2888.47-2.54942-2890.44-9.99244-2891.98-14.0168-2896.91-14.4822-2900.59-15.222-2900.38-16.4197-2901.01-16.6965-2902.15-17.3447-2902.63-17.5537-2903.6-18.1627-2904.11-17.7506-2904.46-18.3921-2904.3-19.4071-2904.73-19.9432-2904.78-18.6506-2905.3-16.893-2904.25-15.9655-2904.88-15.0022-2905.4-13.842-2906.24-13.0689L-2906.24-13.0689C-2906.28-13.0427-2906.32-13.0185-2906.37-12.9944-2906.53-12.9303-2906.72-12.9669-2906.88-13.0364L-2906.88-13.0364C-2909.4-14.4668-2912.09-16.1083-2915.34-18.2027-2914.91-19.1889-2914.42-21.0502-2914.92-22.0664-2915.25-20.9678-2915.63-19.7746-2916.15-18.7227-2917.97-20.156-2918.62-17.2057-2917.76-16.0525-2921.34-14.6858-2925.25-14.3665-2928.83-12.9706-2933.5-10.4191-2932.08 0.835513-2933.01 5.80405-2933.77 14.9052-2934.54 24.3032-2933.42 33.326-2932.93 36.6752-2932.48 40.0359-2931.24 43.1378-2931.08 43.3946-2931 44.0295-2930.58 43.7597-2930.43 43.8484-2930.27 43.9204-2930.1 43.975-2930.32 48.1983-2931.11 58.0567-2924.76 57.4435-2925.19 63.156-2927.57 68.535-2929.23 73.9802-2931.29 81.4448-2932.85 88.9224-2934.12 96.5723-2935.1 102.657-2935.84 108.822-2936.33 114.996-2936.39 115.758-2935.14 115.959-2934.96 115.223-2934.54 115.346-2934.1 115.452-2933.65 115.537-2934.33 117.882-2935.96 119.024-2935.09 121.629-2935.3 124.792-2936.81 127.904-2936.54 131.097-2936.75 132.645-2937.14 134.489-2936.53 135.959-2934 137.542-2930.83 138.04-2927.88 138.129-2925.71 138.04-2920.03 137.59-2920.85 134.394-2920.92 133.5-2920.86 131.351-2922.22 131.513-2923 128.529-2924.12 125.976-2925.62 123.135-2925.4 122.753-2925.65 122.327-2925.87 122.004-2926.99 120.055-2925.76 117.757-2925.91 115.661-2925.17 115.439-2922.14 115.622-2923.34 114.223-2919.31 95.756-2913.73 77.7235-2906.88 60.0595-2906.98 65.1517-2907.49 70.2464-2907.96 75.3198-2909.48 83.5825-2911.38 91.9685-2911.09 100.276-2911.03 103.815-2910.8 107.408-2910.58 110.883-2910.5 111.597-2910.72 113-2909.61 112.864-2908.44 113.308-2907.21 113.601-2905.96 113.738-2906.06 114.997-2905.5 116.389-2906.7 117.3-2908 119.982-2907.68 123.593-2906.67 126.36-2906.48 126.922-2906.79 127.476-2906.66 128.046-2906.5 129.109-2905.79 130.557-2904.53 130.462-2899.51 132.34-2894.72 133.875-2889.44 133.913-2886.85 133.71-2880.5 133.932-2881.99 129.803-2882.08 129.666-2882.25 129.605-2882.41 129.637-2882.46 127.854-2884.08 126.866-2885.48 126.045-2887.26 124.976-2888.8 123.768-2890.34 122.404-2892.43 120.772-2894.47 117.279-2897.52 117.245-2897.51 117.078-2897.57 116.914-2897.67 116.79-2897.83 115.613-2897.99 114.467-2898.26 113.38-2898.02 113.337-2897.79 113.316-2897.56 113.252-2895.96 113.749-2897.38 109.889-2897.21 108.941-2897.6 104.178-2897.35 99.354-2896.72 94.5724-2894.96 81.0606-2890.01 67.478-2887.5 54.0111-2883.96 55.3757-2882.39 50.7723-2881.8 48.18-2881.48 46.4911-2880.76 44.562-2881.71 42.9538-2879.9 43.2643-2880.31 39.0764-2880.26 37.4566ZM-2922.79 8.68526C-2920.4 15.4106-2921.62 23.2903-2922.11 30.2958-2922.26 32.12-2922.39 33.9671-2922.49 35.7859-2922.61 36.6319-2921.66 36.9083-2921.13 37.3754-2921.85 39.6783-2923.09 41.9209-2922.95 44.3983-2923.13 44.2318-2923.32 44.0561-2923.52 43.8617-2923.48 43.7094-2923.43 43.5524-2923.4 43.3955-2923.17 43.2802-2923.08 42.9321-2923.29 42.754-2923.25 31.6421-2925.5 19.6531-2922.79 8.68526ZM-2925.6 56.0289C-2925.89 56.0314-2926.19 56.0552-2926.49 56.1001-2929.56 53.154-2929.22 47.9802-2929.9 44.0353-2928.05 44.5095-2926.07 44.3825-2924.27 43.7568-2924.25 44.0628-2923.85 44.2726-2923.62 44.037-2922.31 46.2929-2920.84 47.7371-2918.71 49.4914-2918.68 49.5155-2918.7 49.548-2918.71 49.5563-2919.09 50.1991-2920.92 49.737-2920.38 50.963-2920.9 52.4217-2919.86 54.3171-2921.28 55.424-2922.19 54.8217-2922.99 56.081-2923.86 56.1651-2923.87 56.1663-2923.94 56.1709-2923.96 56.1717-2924.51 56.1954-2925.04 56.0098-2925.6 56.0289ZM-2921.87 134.072C-2921.81 133.452-2921.93 132.807-2922.06 132.199-2921.41 132.916-2921.69 134.011-2921.58 134.916-2921.59 135.267-2921.42 135.715-2921.83 135.899-2926.06 138.467-2931.69 137.699-2935.97 135.592-2936.36 135.044-2936.23 133.712-2936.28 132.924-2936.23 136.692-2919.84 136.429-2921.87 134.072ZM-2924.52 126.625C-2923.95 129.057-2922.85 131.475-2922.91 134.005-2923.1 134.058-2923.22 134.099-2923.32 134.227-2927.23 135.055-2931.45 135.182-2935.05 133.264-2936.34 129.877-2935.24 125.832-2934.19 122.537-2932.83 121.77-2931.36 121.009-2929.77 120.98L-2929.77 120.98C-2927.08 121.019-2927.78 122.6-2926.37 123.518-2925.79 124.475-2925.49 125.963-2924.52 126.625ZM-2927.63 120.761C-2929.74 119.516-2932.36 120.696-2934.15 122.102-2934.09 121.678-2934.19 121.26-2934.29 120.855-2934.89 119.031-2932.91 117.472-2933.42 115.579L-2933.42 115.579C-2931.1 115.976-2928.67 115.958-2926.33 115.709-2926.86 117.358-2927.57 119.011-2927.63 120.761ZM-2882.5 130.134C-2882.47 130.147-2882.45 130.154-2882.42 130.154-2881.04 135.019-2894.78 133.191-2897.31 132.332-2899.98 131.333-2906.29 130.898-2906.07 127.441-2904.8 128.87-2901.99 129.002-2900.25 129.688-2895.9 130.862-2889.44 133.277-2885.12 131.948-2884.05 131.788-2882.86 131.23-2882.5 130.134ZM-2896.44 118.323C-2894.81 118.922-2893.74 120.368-2892.55 121.547-2890.62 123.467-2888.49 125.177-2886.2 126.647-2885.27 127.231-2884.06 127.756-2883.46 128.733-2882.67 130.069-2884.14 131.089-2885.4 131.064-2885.91 131.129-2886.35 131.185-2886.48 131.45-2892.82 131.566-2899.08 129.273-2905.09 127.365-2907 125.848-2907.06 121.473-2906.69 119.316-2906.58 118.544-2906.39 117.108-2905.8 117.108L-2905.8 117.108C-2905.76 117.108-2905.71 117.117-2905.67 117.133-2905.67 117.353-2905.65 117.661-2905.4 117.732-2905.4 117.749-2905.39 117.769-2905.39 117.785-2905.27 119.48-2902.7 121.786-2900.87 120.459-2899.54 119.147-2898.65 117.405-2896.44 118.323ZM-2898.91 117.49C-2900.22 117.87-2900.54 119.532-2901.73 120.055-2903.23 120.554-2904.68 119.053-2905.04 117.7-2904.68 116.538-2905.18 115.07-2905.13 113.813-2903.04 113.924-2901.05 113.772-2898.91 113.479-2898.97 114.775-2899.26 116.245-2898.91 117.49ZM-2897.98 112.148C-2901.77 112.793-2905.53 113.048-2909.3 112.722-2908.85 105.613-2910.31 98.1705-2909.26 91.093-2908.26 80.8903-2904.47 70.1777-2906.51 59.918-2905.95 59.2115-2904.64 58.5022-2904.79 57.5326-2904.96 57.1725-2905.5 56.941-2905.81 57.2637-2905.18 55.5943-2904.56 53.89-2903.92 52.0533-2913.71 72.0748-2919.1 92.3144-2924.48 114.305-2927.81 115.073-2931.46 115.072-2934.92 114.972-2934.06 100.302-2931.04 84.1283-2926.11 66.9418-2925.25 63.8816-2924.35 60.6936-2924.55 57.4739-2923.33 57.6171-2921.98 57.0822-2921.28 56.0631-2918.85 56.8124-2919.31 52.5112-2919.85 51.2173-2918.8 51.3759-2917.42 50.6778-2917.44 49.5022-2917.57 48.3461-2918.96 47.8695-2919.7 47.1293-2920.55 46.4748-2921.43 45.7988-2922.22 45.0519-2922.35 42.5371-2921.35 40.1546-2920.49 37.8441-2915.99 40.9331-2911.57 44.589-2906.82 47.1588-2906.06 47.1509-2905.48 46.6006-2904.9 46.178-2903.17 44.8946-2901.45 43.6448-2899.73 42.3173-2899.55 42.3851-2899.33 42.3714-2899.17 42.2627-2892.94 47.9852-2895.36 49.548-2889.55 43.7219-2888.97 43.1657-2888.37 42.5904-2887.79 42.0167-2887.64 42.1945-2887.36 42.2527-2887.17 42.1258-2888.42 65.7162-2901.29 88.2401-2897.98 112.148ZM-2882.52 46.1705C-2882.81 47.2533-2883.15 48.4797-2883.58 49.5884-2884.39 51.5012-2885.16 53.2605-2887.25 52.5699-2886.8 49.8365-2886.48 47.1984-2886.17 44.2102-2884.75 43.9184-2883.38 43.4155-2882.11 42.7186L-2882.11 42.7186-2882.11 42.7186C-2882.11 42.7186-2882.11 42.7186-2882.11 42.7186-2881.6 43.8572-2882.29 45.0111-2882.52 46.1705Z" transform="matrix(1.00362 0 0 1 3664.73 522.708)"/><path d="M-2898.04 38.2513C-2898.91 38.2533-2898.99 39.5984-2898.09 39.6267-2897.22 39.6242-2897.14 38.2787-2898.04 38.2513Z" fill="#FFFFFF" transform="matrix(1.00362 0 0 1 3664.73 522.708)"/><path d="M-2898.51 31.3174C-2899.14 31.3582-2899.11 32.4039-2898.5 32.4476-2898.04 32.4023-2897.86 31.5813-2898.29 31.3686-2898.29 31.3698-2898.38 31.3174-2898.51 31.3174L-2898.51 31.3174Z" fill="#FFFFFF" transform="matrix(1.00362 0 0 1 3664.73 522.708)"/><path d="M-2899.31 22.2475C-2899.99 22.2704-2899.93 23.2328-2899.56 23.6092-2899.08 24.6216-2897.97 22.3495-2899.31 22.2475L-2899.31 22.2475Z" fill="#FFFFFF" transform="matrix(1.00362 0 0 1 3664.73 522.708)"/><path d="M-2900.8 14.7174C-2901.54 14.717-2901.44 15.8352-2900.73 15.7923-2900.01 15.7969-2900.11 14.6721-2900.8 14.7174Z" fill="#FFFFFF" transform="matrix(1.00362 0 0 1 3664.73 522.708)"/><path d="M-2901.95 7.25485C-2902.68 7.26526-2902.62 8.41508-2901.94 8.39593-2901.29 8.38885-2901.26 7.21197-2901.95 7.25485Z" fill="#FFFFFF" transform="matrix(1.00362 0 0 1 3664.73 522.708)"/><path d="M-2902.8 0.556176C-2903.46 0.562421-2903.35 1.66728-2902.77 1.68476-2902.14 1.6065-2902.1 0.558258-2902.8 0.556176Z" fill="#FFFFFF" transform="matrix(1.00362 0 0 1 3664.73 522.708)"/><path d="M-2904.56-6.91057C-2905.13-6.90558-2905.11-5.90354-2904.49-5.9202-2903.82-5.95183-2903.93-6.90474-2904.56-6.91057Z" fill="#FFFFFF" transform="matrix(1.00362 0 0 1 3664.73 522.708)"/><path d="M-1962.12-297.397C-1958.57-297.397-1954.9-294.649-1953.6-292.895-1952.79-291.795-1952.39-288.391-1951.99-285.012-1951.65-282.162-1951.22-279.34-1951.47-277.829-1952.03-274.526-1954.79-270.926-1959.58-270.926-1964.38-270.926-1967.3-271.516-1967.42-272.374-1967.54-273.232-1970.58-278.008-1970.58-278.008-1970.58-278.008-1973.62-277.99-1973.71-280.978-1973.77-283.07-1972.04-283.832-1972.04-283.832-1972.04-283.832-1972.64-292.092-1971.13-294.243-1969.62-296.394-1965.66-297.397-1962.12-297.397Z" fill="#FFFFFF" transform="matrix(1.00362 0 0 1 2715.05 774.152)"/><path d="M-1959.71-270.553C-1961.23-270.578-1963.01-270.777-1964-272.074-1964.01-272.093-1964.01-272.118-1964.01-272.14-1963.98-272.177-1963.93-272.197-1963.89-272.178-1960.86-270.777-1956.83-271.105-1954.21-273.326-1954.1-273.48-1953.98-273.629-1953.85-273.769-1952.05-275.447-1951.66-277.689-1951.92-280.05L-1951.92-280.054C-1952.1-283.368-1952.55-286.614-1953.26-289.886L-1953.26-289.886C-1953.41-290.588-1953.56-291.314-1953.66-292.027-1953.68-292.233-1953.69-292.67-1953.69-292.67-1953.69-292.661-1953.71-292.52-1953.76-292.489-1953.88-292.426-1954.02-292.397-1954.16-292.404-1954.21-292.404-1954.25-292.405-1954.29-292.407L-1954.3-292.407C-1956.41-292.402-1959.2-292.427-1961.32-292.412-1963.21-292.402-1964.88-292.372-1966.92-292.645-1968.54-292.848-1969.63-292.925-1971.07-293.291-1971.09-293.296-1971.1-293.272-1971.09-293.265-1969.75-292.631-1968.38-292.268-1967-291.777-1966.64-291.38-1966.38-290.006-1966.14-289.492L-1966.14-289.491C-1965.78-288.898-1966.59-288.555-1967.01-288.261-1967.17-288.145-1967.51-287.9-1967.67-287.782-1967.82-287.671-1967.99-287.586-1968.17-287.651-1968.17-287.651-1968.17-287.651-1968.17-287.651-1968.03-286.989-1967.95-285.114-1967.91-284.214L-1967.91-284.213C-1967.93-283.621-1967.71-283.078-1967.94-282.548-1967.99-282.461-1968.08-282.406-1968.18-282.401-1968.18-282.401-1968.19-282.401-1968.19-282.402-1968.61-282.434-1969.04-282.465-1969.46-282.496-1969.57-282.499-1969.67-282.575-1969.7-282.684L-1969.7-282.69C-1969.72-282.686-1969.74-282.691-1969.75-282.703-1969.77-282.726-1969.8-282.749-1969.82-282.77-1970.69-283.582-1972.24-283.295-1972.95-282.474-1973.65-281.59-1973.23-279.795-1972.41-279.092-1971.84-278.556-1971.1-278.417-1970.38-278.267-1970.3-278.248-1970.24-278.186-1970.23-278.108-1970.2-278.031-1970.23-277.946-1970.29-277.891-1970.02-277.612-1969.76-277.315-1969.53-277.003-1968.83-276.055-1967.86-274.862-1967.29-273.709-1966.77-272.625-1967.23-271.053-1967.83-272.933-1968.13-273.776-1968.65-274.525-1969.15-275.254-1969.65-276.009-1970.26-276.898-1970.64-277.756-1973.34-277.249-1975.19-281.424-1973.28-283.185-1973.29-283.192-1973.31-283.205-1973.31-283.221-1973.58-283.864-1973.64-284.619-1973.67-285.34-1973.74-287.388-1973.49-289.447-1972.91-291.412-1972.07-294.335-1970.16-296.995-1967.06-297.807-1964.36-298.541-1961.4-298.282-1958.81-297.205-1956.72-296.344-1954.87-294.961-1953.54-293.144-1953.48-293.055-1953.39-292.898-1953.33-292.798L-1953.33-292.798C-1953.27-292.699-1953.21-292.597-1953.15-292.492-1953.1-292.369-1953.05-292.242-1953.01-292.113-1951.77-288.085-1951.33-283.805-1951.01-279.594-1950.88-278.091-1950.85-276.519-1951.57-275.148-1952.17-274.038-1952.9-272.808-1954.17-272.408-1955.65-271.048-1957.75-270.579-1959.71-270.553Z" transform="matrix(1.00362 0 0 1 2715.05 774.152)"/><path d="M-1970.39-279.549C-1970.46-279.547-1970.52-279.568-1970.58-279.607-1970.64-279.652-1970.67-279.718-1970.68-279.792-1970.73-280.132-1970.85-280.458-1971.04-280.746-1971.08-280.731-1971.12-280.711-1971.17-280.686-1971.21-280.657-1971.25-280.624-1971.29-280.588-1971.46-280.356-1971.92-280.421-1971.92-280.75-1971.91-280.875-1971.85-280.992-1971.75-281.066-1971.65-281.134-1971.53-281.171-1971.41-281.174-1971.47-281.227-1971.51-281.26-1971.56-281.302-1971.63-281.34-1972.02-281.65-1972.12-281.589L-1972.12-281.583C-1972.12-281.549-1972.16-281.528-1972.19-281.555-1972.22-281.583-1972.23-281.624-1972.22-281.665-1972.2-281.731-1972.15-281.783-1972.08-281.806-1972.03-281.828-1971.98-281.839-1971.92-281.837-1970.95-281.661-1970.31-280.857-1970.03-279.972-1970-279.879-1970.01-279.777-1970.07-279.699-1970.15-279.603-1970.26-279.548-1970.39-279.549Z" transform="matrix(1.00362 0 0 1 2715.05 774.152)"/><path d="M27.9887-410.42C24.4772-410.469 20.7334-411.573 18.2885-414.204 15.5634-416.053 15.9251-420.009 16.1716-422.827 16.3343-424.276 16.3114-425.833 16.9642-427.144 16.898-427.452 17.393-427.71 17.5283-427.373 18.2306-425.787 18.9574-424.147 20.0998-422.79 21.1318-421.32 24.4056-419.343 25.0317-422.174 26.0745-424.072 28.7118-424.218 30.6367-423.993 31.4856-423.805 31.988-423.185 32.2786-422.457 32.5234-421.774 33.0396-421.22 33.9638-421.374 33.9892-421.366 34.0163-421.362 34.0425-421.366 34.1786-421.557 34.2619-421.786 34.3584-421.999 34.3497-422.044 34.3364-422.09 34.3318-422.136 34.4521-422.332 34.7065-422.419 34.9184-422.323 35.6444-418.885 35.7909-415.66 34.4013-412.505 32.7819-411.014 30.2125-410.401 27.9887-410.42ZM29.3141-422.053C28.0677-422.09 26.3759-421.383 26.9004-419.863 27.0695-419.505 27.42-419.093 27.8792-419.214 28.201-419.326 28.2667-419.817 28.4853-420.071 29.243-420.887 30.0077-419.859 30.5543-419.334 30.7158-419.209 30.9594-419.23 31.0905-419.393 31.7104-420.134 30.8295-421.637 30.1122-421.97 29.8499-422.028 29.5822-422.053 29.3141-422.053Z" transform="matrix(1.00362 0 0 1 721.677 917.263)"/><path d="M-188.28-220.012C-189.8-219.984-191.273-220.953-191.895-222.332-192.101-222.875-192.25-223.535-192.934-223.591-193.061-223.611-193.185-223.648-193.303-223.701-193.543-223.812-193.689-224.07-193.702-224.329-193.789-224.323-193.877-224.316-193.971-224.309-194.63-224.165-198.746-224.035-199.297-224.031-199.301-224.03-199.642-223.887-199.932-223.887-200.037-223.88-200.142-223.909-200.23-223.968-200.318-224.032-200.384-224.122-200.416-224.226-200.442-224.332-200.429-224.443-200.379-224.54-200.228-224.862-199.544-225.067-199.158-225.145-199.218-225.141-193.599-225.107-193.51-225.173-193.275-225.416-192.844-225.383-192.505-225.42-192.277-225.583-191.944-225.726-191.488-225.858-191.417-225.885-191.354-225.908-191.295-225.93-189.85-226.431-188.241-226.452-186.76-226.111-186.283-226.044-185.811-225.949-185.346-225.825-184.961-225.724-184.547-225.615-184.109-225.614-183.537-225.611-182.947-225.859-182.468-226.075-181.476-226.497-180.413-226.728-179.335-226.756-178.45-226.775-177.586-226.599-176.726-226.417L-176.717-226.416C-176.402-226.415-176.048-226.273-175.966-225.938-175.922-225.759-175.977-225.563-176.1-225.426-176.105-225.24-176.102-225.048-176.098-224.845L-176.098-224.844C-176.089-224.395-176.08-223.931-176.175-223.512-176.233-222.643-176.414-221.716-177.007-221.044-177.608-220.386-178.595-220.199-179.337-220.345-180.392-220.382-181.416-220.924-182.03-221.784-182.537-222.476-182.698-223.368-182.625-224.211L-182.618-224.268C-182.984-224.435-183.422-224.417-183.814-224.417-183.948-224.402-184.072-224.383-184.192-224.358-184.336-224.316-184.469-224.241-184.579-224.14-184.64-223.191-184.758-221.988-185.454-221.279-186.073-220.38-187.229-220.016-188.28-220.012Z" transform="matrix(1.00362 0 0 1 934.348 713.789)"/><path d="M-186.872-225.344C-187.005-225.338-187.113-225.234-187.123-225.101-187.141-224.984-187.062-224.874-186.945-224.853-186.726-224.813-186.532-224.686-186.406-224.502L-186.393-224.481C-186.298-224.309-186.036-224.339-185.949-224.502-185.909-224.576-185.913-224.666-185.961-224.734-186.161-225.054-186.494-225.293-186.872-225.344L-186.872-225.344ZM-177.745-225.673C-177.836-225.671-177.92-225.624-177.969-225.547-178.033-225.432-177.999-225.286-177.89-225.211L-177.879-225.203C-177.774-225.131-177.702-225.019-177.68-224.894L-177.68-224.878C-177.677-224.739-177.558-224.629-177.419-224.637-177.352-224.635-177.287-224.661-177.238-224.708-177.196-224.754-177.174-224.816-177.179-224.878-177.19-225.172-177.349-225.441-177.627-225.637-177.661-225.661-177.702-225.673-177.745-225.673Z" fill="#FFFFFF" transform="matrix(1.00362 0 0 1 934.348 713.789)"/></g></svg>