<svg width="57" height="189" xmlns="http://www.w3.org/2000/svg" xmlns:xlink="http://www.w3.org/1999/xlink" xml:space="preserve" overflow="hidden"><defs><clipPath id="clip0"><rect x="1008" y="474" width="57" height="189"/></clipPath></defs><g clip-path="url(#clip0)" transform="translate(-1008 -474)"><path d="M30.2332 27.8111C30.2332 27.8111 29.2589 30.758 25.4053 31.0662 25.4053 31.0662 17.4603 32.9936 10.8031 39.7257 10.8031 39.7257 5.15158 59.1469 4.22655 67.6757 3.30152 76.2045 3.38214 81.2897 2.73641 83.1406 2.09068 84.9915 3.01001 87.1843 5.13366 90.0177L4.89996 90.5022 7.44664 102.554C7.44664 102.554 7.71332 106.877 8.18683 108.328 8.18683 108.328 8.65423 113.303 10.212 113.273 10.212 113.273 10.5706 113.45 10.5609 113.629 10.5523 113.778 10.2348 113.905 10.2201 114.169 9.82802 121.154 7.19584 166.694 6.66778 168.708 6.66778 168.708 6.384 169.573 7.82447 169.779 9.26494 169.984 19.3898 171.613 19.3898 171.613 19.3898 171.613 18.7314 175.351 19.472 177.668 19.472 177.668 18.5254 181.179 18.4843 183.484 18.4843 183.484 20.2383 185.419 23.4755 185.419 26.7126 185.419 28.1946 184.689 28.568 182.624 28.9413 180.56 27.5391 177.475 27.0453 176.652 26.5514 175.829 27.4569 172.16 27.4569 172.16L30.2324 171.878C30.2324 171.878 29.8851 175.763 30.9144 176.831L30.9144 178.257C30.9144 178.257 34.8241 177.954 38.8166 179.32 42.809 180.686 52.6867 184.786 54.6622 179.32L54.1972 176.472C54.1972 176.472 44.7434 174.759 42.5619 170.931L51.8484 169.678 51.2324 131.741 51.1432 113.5C51.1432 113.5 51.9189 111.102 52.201 109.668 52.4555 108.375 52.9392 105.571 52.9392 105.571 52.9392 105.571 50.7296 89.6154 51.4836 87.3554 51.4836 87.3554 52.131 84.3091 51.8822 83.1903 51.6334 82.0714 51.3782 81.8854 52.131 80.4237 52.8215 79.0834 52.7836 79.2426 52.5662 75.3882 52.3488 71.5338 50.5557 47.9199 48.3462 41.9496 48.3462 41.9496 45.7014 38.3549 39.2673 34.7806L39.514 33.9419C39.5144 33.9419 37.7739 23.6302 30.2332 27.8111Z" fill="#FFFFFF" transform="matrix(1 0 0 1.00696 1008 474)"/><path d="M28.4511 181.679C28.4511 181.676 28.4511 181.674 28.4511 181.672 28.3876 180.109 27.9589 179.134 27.5444 178.192 26.9386 176.815 26.4154 175.626 27.1971 172.794 27.2187 172.715 27.2033 172.631 27.1548 172.566 27.1063 172.5 27.0302 172.461 26.9492 172.459 24.7999 172.405 22.46 172.227 19.5848 171.899 19.5148 171.89 19.4443 171.911 19.3894 171.955 19.3344 171.999 19.2994 172.063 19.2916 172.133 19.1679 173.286 19.4419 176.665 19.4724 176.916 19.5221 177.32 19.2469 178.421 19.2171 178.496 18.775 179.609 18.6537 180.782 18.593 181.784 18.5881 181.865 18.5563 183.22 18.5417 183.355 18.5315 183.449 18.5722 183.542 18.6488 183.597 20.0697 184.633 21.7618 185.181 23.4579 185.181 23.975 185.181 24.4921 185.13 25.0022 185.027 26.003 184.826 27.248 184.575 28.0436 183.731 28.125 183.645 28.4153 182.565 28.4247 182.463 28.4467 182.225 28.4548 181.977 28.4511 181.679Z" fill="#FFFFFF" transform="matrix(1 0 0 1.00696 1008 474)"/><path d="M54.4936 178.452C54.4631 177.92 54.196 176.743 54.1797 176.67 54.1557 176.561 54.0657 176.479 53.9558 176.465 51.2959 176.121 48.4268 175.082 45.429 173.379 45.3565 173.338 44.3607 172.72 44.1603 172.587 44.061 172.521 42.9519 171.699 42.9519 171.699 42.877 171.64 41.3177 171.34 41.2029 171.35 39.7909 171.482 38.3573 171.636 36.9714 171.785 34.8294 172.016 32.6146 172.254 30.4331 172.414 30.2951 172.424 30.188 172.538 30.188 172.677 30.1856 173.723 30.2055 174.744 30.4722 175.731 30.4746 175.74 30.4771 175.748 30.4803 175.756 30.55 175.94 30.6448 176.102 30.736 176.257 30.8138 176.389 31.0601 177.672 31.0491 177.947 31.0459 178.023 31.0764 178.097 31.1318 178.149 31.1875 178.202 31.2629 178.228 31.339 178.22 33.2579 178.033 35.2113 178.419 37.2108 178.868 38.6248 179.183 40.0283 179.677 41.3857 180.155 42.9031 180.689 44.4722 181.241 46.0804 181.554 46.0837 181.555 46.0869 181.556 46.0906 181.556 46.9757 181.693 48.0372 181.807 49.1527 181.822 52.2727 181.865 53.6545 180.827 53.6667 180.817 54.2208 180.378 54.4016 179.665 54.4598 179.279 54.4676 179.226 54.4993 178.551 54.4936 178.452Z" fill="#FFFFFF" transform="matrix(1 0 0 1.00696 1008 474)"/><path d="M42.445 90.8315C42.445 90.8315 42.445 90.8311 42.445 90.8307 42.4019 87.9408 42.3836 84.9996 42.3661 82.1553 42.2802 68.4293 42.1914 54.2363 39.308 40.4985 39.2807 40.3682 39.161 40.2786 39.0283 40.2892 38.8956 40.2998 38.7913 40.4073 38.7852 40.54 38.6444 43.4592 38.2669 46.4436 36.4747 48.496 36.4442 48.5261 36.421 48.5298 36.4063 48.5302 36.3709 48.5306 36.3273 48.5086 36.2911 48.4728 31.135 43.331 27.2611 37.7043 24.7767 31.7482 24.7217 31.6167 24.5723 31.5523 24.4387 31.6028 24.3105 31.6513 24.1822 31.6993 24.054 31.7474 23.6859 31.8854 23.3057 32.0279 22.9335 32.1814 22.8598 32.2119 22.8037 32.2738 22.7809 32.3503 22.7581 32.4269 22.7711 32.5091 22.8159 32.5751 24.4469 34.9622 25.0995 37.5015 25.7909 40.1899 26.1996 41.7802 26.6227 43.4246 27.2659 45.0711 30.631 54.084 32.4273 61.7094 32.9183 69.0693 32.9183 69.0718 32.9187 69.0742 32.9187 69.0767 33.3047 73.1269 32.6113 79.7971 32.0544 85.1572 31.7233 88.341 31.4375 91.0909 31.3936 92.9405 31.3903 93.0745 31.4901 93.1763 31.6199 93.2084 36.8835 94.5154 41.7781 93.7679 42.2211 93.7817 42.294 93.7841 42.3644 93.756 42.4157 93.7047 42.4674 93.6534 42.4955 93.583 42.4935 93.5105 42.4735 92.6999 42.4577 91.8237 42.445 90.8315Z" fill="#FFFFFF" transform="matrix(1 0 0 1.00696 1008 474)"/><path d="M52.6485 76.7766C52.4347 73.8297 52.3333 69.6735 51.8965 65.2744 51.0439 56.6914 49.5261 47.0682 48.7338 43.3212 48.6878 42.9735 48.5078 42.0627 48.2354 42.0917 47.9757 42.1193 47.437 41.3169 47.251 41.1039 45.2234 38.6973 42.7292 37.1542 40.0885 35.5208 39.8296 35.3608 39.5706 35.2003 39.3113 35.0387 39.2421 34.9956 39.1566 34.9866 39.0796 35.0151 39.0067 35.042 38.9497 35.0994 38.9233 35.1714L38.9233 35.1714C38.7971 35.4788 38.5353 36.2349 38.7738 36.7186 42.4972 51.1233 42.6018 66.2157 42.7032 80.8113 42.7329 85.1104 42.7638 89.5555 42.8872 93.9132 42.9031 94.3814 42.9385 96.3776 43.1681 96.7331 43.4922 97.233 44.9119 97.2534 44.9494 97.2534 46.8841 97.2534 47.7163 96.6765 48.6112 94.7503 48.6247 94.7214 48.6328 94.69 48.6353 94.6583 48.8099 92.2724 48.9923 89.9643 49.1075 87.5255 49.25 87.5475 51.2552 87.4974 51.3012 87.4315 51.3476 87.3655 52.1021 84.43 51.9905 83.8275 51.9893 83.8205 51.4682 82.8939 51.4409 82.7213 51.3395 82.091 52.8728 79.8708 52.6485 76.7766Z" fill="#FFFFFF" transform="matrix(1 0 0 1.00696 1008 474)"/><path d="M26.3686 43.8094C25.6895 42.156 25.2652 40.5303 24.8553 38.9579 24.2848 36.7715 23.7458 34.7061 22.585 32.584 22.5195 32.4643 22.3741 32.4143 22.2487 32.468 19.0966 33.8193 16.1391 35.5904 13.4581 37.732 13.4553 37.734 13.4528 37.7364 13.45 37.7389 12.9056 38.2108 12.3181 38.6468 11.7497 39.0682 11.4444 39.2946 11.1284 39.5291 10.821 39.7677 10.7771 39.8019 10.7449 39.8491 10.7294 39.9024 7.82691 49.8481 5.46182 59.6664 4.13331 69.2163 3.62316 72.8822 3.46764 76.5082 3.19485 80.087 3.19404 80.0984 3.19404 80.1094 3.19444 80.1208 3.24289 81.0581 2.32275 85.2191 2.60531 85.9523 2.60694 85.9564 4.53883 88.5955 4.5429 88.6012 4.69965 88.8255 5.2041 89.9273 5.30874 89.9484 6.34736 90.1585 7.50894 90.2542 8.38796 90.2542 9.77998 90.2542 11.0328 90.0335 12.0547 89.5022 12.4105 89.3174 12.4508 89.9317 12.5213 89.9745 12.5213 89.9786 12.5217 89.9835 12.5213 89.99 12.4048 91.8034 12.2668 93.6074 12.2428 95.1668 12.242 95.2319 14.4764 96.2111 17.1085 96.6948 20.2208 97.2668 23.997 97.4236 26.3226 97.4236 27.5937 97.4236 28.8689 97.1549 30.0618 97.1101 30.1823 97.1056 30.2841 97.0201 30.3102 96.9028 30.3639 96.6594 30.8622 95.4868 30.905 95.1021 31.4648 90.9683 31.6065 88.5222 31.7315 86.364 31.8215 84.8127 31.9062 83.3474 32.1293 81.4326 32.6638 76.8405 33.1483 74.3883 32.834 69.5929 32.262 60.8703 29.848 52.2714 26.3686 43.8094Z" fill="#FFFFFF" transform="matrix(1 0 0 1.00696 1008 474)"/><path d="M51.0512 133.03C51.0455 131.723 51.0333 130.392 51.0211 129.106 50.9755 124.159 50.9283 119.045 51.2393 114.029 51.2471 113.902 51.1636 113.788 51.0406 113.757 50.9173 113.725 50.857 113.819 50.8033 113.935 50.6038 114.364 50.2626 114.928 49.9226 115.678 49.8449 115.692 49.6572 115.646 49.6051 115.594 49.0424 114.998 49.2456 114.088 49.4251 113.285 49.4951 112.972 49.8852 111.233 50.1095 110.75 50.3754 110.178 50.4743 109.764 50.329 109.559 50.2614 109.464 50.2154 109.585 50.0916 109.596 49.5033 109.653 49.09 109.559 48.8278 109.309 48.2937 108.799 48.3539 107.592 48.4182 106.315 48.4708 105.263 48.5306 104.071 48.2761 103.021 48.0714 102.177 48.2468 101.728 48.4015 101.332 48.5094 101.057 48.6206 100.772 48.5652 100.425 48.459 99.7602 48.0192 98.314 47.9895 97.4097 47.9867 97.3202 47.689 97.1414 47.6084 97.1809 46.444 97.7534 45.0915 97.9183 43.8004 97.6455 43.7976 97.6447 43.7943 97.6443 43.7915 97.6438 42.6344 97.4411 42.531 96.249 42.5163 94.7116 42.5147 94.5614 42.5134 94.416 42.5098 94.2784 42.5077 94.2019 42.2765 94.0117 42.2008 94.0248 38.8972 94.5915 35.406 94.3961 32.1044 93.4596 31.9648 93.4202 31.819 93.5004 31.7783 93.64 31.4465 94.7776 31.0972 95.876 30.7401 96.9053 30.7185 96.9676 30.0911 97.4008 29.8314 97.4024 29.5097 97.4044 29.23 97.4061 29.0301 97.4737 25.1655 98.0396 15.9083 97.5978 12.8046 95.4717 12.7265 95.418 12.6251 95.4107 12.5396 95.4522 12.5396 95.4522 12.3079 95.6244 12.3043 95.7221 12.2721 96.5999 12.3071 97.4948 12.3413 98.3608 12.3788 99.3095 12.4174 100.29 12.3649 101.232 12.3592 101.334 12.4134 101.43 12.5034 101.479 14.2638 102.428 14.6311 104.61 14.7654 106.831 14.8444 107.875 14.9425 109.173 15.5268 110.233 15.5805 110.33 15.6363 110.425 15.6905 110.516 15.9498 110.956 16.1742 111.336 16.0768 111.837 16.0764 111.839 16.076 111.841 16.0756 111.843 16.0255 112.14 15.9018 112.338 15.7283 112.4 15.5317 112.47 15.2626 112.38 15.0081 112.159 14.9206 112.083 14.7935 112.073 14.6946 112.134 14.5961 112.196 14.5492 112.314 14.579 112.426 14.7667 113.134 15.6595 115.845 15.5231 116.241 15.449 116.449 15.2955 116.704 14.9841 116.727 14.6384 116.754 14.2398 116.498 14.0371 116.12 14.0029 116.056 13.9434 116.009 13.8734 115.99 13.8034 115.971 13.1678 116.232 12.972 116.166 12.6739 116.064 12.4048 115.688 12.1483 115.016 12.1125 114.922 12.0258 114.856 11.9248 114.847 11.5844 114.817 10.8601 114.002 10.8414 113.987 10.8231 113.971 10.5242 113.777 10.4355 113.806L10.2909 113.701C10.1851 113.736 10.1985 113.958 10.1953 114.069 9.73967 129.844 8.58094 145.9 7.46008 161.428 7.28134 163.903 7.09691 166.462 6.91817 168.978 6.9084 169.115 7.00449 169.236 7.13966 169.258 7.90427 169.382 8.66889 169.508 9.43391 169.634 14.0261 170.393 18.7742 171.177 23.5011 171.479 24.782 171.598 26.0649 171.648 27.3478 171.648 31.0275 171.648 34.7024 171.235 38.2865 170.831 39.3809 170.708 40.5127 170.58 41.6242 170.467 45.2751 170.094 48.3315 169.768 51.2438 169.441 51.3195 169.432 51.4893 169.187 51.4706 169.113 51.4254 168.933 51.6176 168.096 51.6172 168.082 51.3892 156.218 51.1738 144.611 51.0512 133.03Z" transform="matrix(1 0 0 1.00696 1008 474)"/><path d="M28.5525 73.5088C27.5224 75.0006 26.6809 76.6569 25.5421 78.0766 23.8333 80.3838 21.7374 82.2457 19.5034 83.9862 19.3169 84.1434 19.4712 84.4512 19.6882 84.3384 23.2987 82.1871 26.1834 78.8619 28.2231 75.185 28.4617 74.7152 28.7382 74.2335 28.8546 73.7047 28.8957 73.5141 28.6812 73.3602 28.5525 73.5088Z" transform="matrix(1 0 0 1.00696 1008 474)"/><path d="M24.5271 175.323C23.4307 175.069 21.6624 175.103 21.2643 176.454 21.1881 176.77 21.6164 176.994 21.7524 176.683 22.0167 176.078 22.9372 176.094 23.4453 176.11 23.7963 176.12 24.1362 176.174 24.4742 176.284 24.8239 176.397 25.1162 176.567 25.49 176.507 25.6891 176.474 25.7412 176.193 25.6651 176.027 25.4546 175.57 24.9448 175.427 24.5271 175.323Z" transform="matrix(1 0 0 1.00696 1008 474)"/><path d="M21.5546 173.735C22.1026 173.475 22.7218 173.387 23.3142 173.434 23.8871 173.479 24.4322 173.817 25.0071 173.781 25.126 173.774 25.1916 173.644 25.1382 173.526 24.4493 172.277 22.298 172.542 21.2887 173.228 20.9854 173.42 21.252 173.878 21.5546 173.735Z" transform="matrix(1 0 0 1.00696 1008 474)"/><path d="M23.2116 174.724C23.7491 174.672 24.2763 174.749 24.7531 175.01 25.0804 175.14 25.3174 174.696 25.1765 174.396 24.8524 173.705 23.8948 173.761 23.3077 173.804 22.5582 173.86 21.7141 173.997 21.1116 174.531 20.9499 174.674 21.0896 174.97 21.274 174.968 21.9234 174.965 22.5606 174.753 23.2116 174.724Z" transform="matrix(1 0 0 1.00696 1008 474)"/><path d="M25.2864 38.0516C25.9317 38.0984 26.5775 38.1456 27.2228 38.1924 27.6719 38.225 27.6698 37.5251 27.2228 37.493 26.5775 37.4461 25.9317 37.3989 25.2864 37.3521 24.8373 37.3191 24.8394 38.019 25.2864 38.0516L25.2864 38.0516Z" transform="matrix(1 0 0 1.00696 1008 474)"/><path d="M26.2005 41.5823C27.757 41.7843 29.3139 41.9858 30.8704 42.1877 31.0593 42.2122 31.2185 42.0094 31.2201 41.838 31.2222 41.6287 31.0569 41.5123 30.8704 41.4883 29.3139 41.2863 27.757 41.0848 26.2005 40.8828 26.0115 40.8584 25.8524 41.0612 25.8507 41.2326 25.8487 41.4414 26.014 41.5579 26.2005 41.5823L26.2005 41.5823Z" transform="matrix(1 0 0 1.00696 1008 474)"/><path d="M26.884 44.7588C28.8713 44.8973 30.8512 45.1228 32.8182 45.4384 33.2587 45.5092 33.4484 44.835 33.0042 44.7637 30.9754 44.4384 28.9336 44.2019 26.884 44.059 26.4346 44.028 26.4366 44.7279 26.884 44.7588L26.884 44.7588Z" transform="matrix(1 0 0 1.00696 1008 474)"/><path d="M38.2824 45.9436C38.8146 45.9436 39.3467 45.9436 39.8788 45.9436 40.3291 45.9436 40.3299 45.2442 39.8788 45.2442 39.3467 45.2442 38.8146 45.2442 38.2824 45.2442 37.8325 45.2442 37.8317 45.9436 38.2824 45.9436L38.2824 45.9436Z" transform="matrix(1 0 0 1.00696 1008 474)"/><path d="M38.8528 43.4352C39.157 43.4352 39.4611 43.4352 39.7648 43.4352 40.2151 43.4352 40.2159 42.7357 39.7648 42.7357 39.4607 42.7357 39.1566 42.7357 38.8528 42.7357 38.4025 42.7357 38.4017 43.4352 38.8528 43.4352L38.8528 43.4352Z" transform="matrix(1 0 0 1.00696 1008 474)"/><path d="M30.0699 53.0124C30.3305 52.7441 30.7511 52.7796 31.0959 52.7791 31.5625 52.7791 32.0295 52.78 32.4961 52.7804 33.4684 52.7812 34.4406 52.782 35.4129 52.7828 37.3574 52.7844 39.3023 52.7861 41.2468 52.7873 41.6971 52.7877 41.6979 52.0878 41.2468 52.0878 39.1855 52.0862 37.1241 52.0846 35.0627 52.0829 34.0514 52.0821 33.0405 52.0813 32.0291 52.0805 31.2519 52.0797 30.1766 51.8977 29.5749 52.5178 29.2614 52.841 29.7556 53.3361 30.0699 53.0124L30.0699 53.0124Z" transform="matrix(1 0 0 1.00696 1008 474)"/><path d="M28.7769 49.1926C29.0667 48.9178 29.5427 48.9593 29.9128 48.9593 30.4201 48.9593 30.9274 48.9601 31.4351 48.9606 32.5083 48.9614 33.582 48.9622 34.6552 48.963 36.7825 48.9646 38.9094 48.9663 41.0367 48.9675 41.487 48.9679 41.4879 48.268 41.0367 48.268 38.7926 48.2664 36.5484 48.2647 34.3038 48.2631 33.1915 48.2623 32.0792 48.2615 30.9669 48.2607 30.4624 48.2603 29.9523 48.2371 29.4486 48.268 29.0154 48.2949 28.6054 48.3918 28.2826 48.6979 27.9548 49.0082 28.4499 49.5025 28.7769 49.1926L28.7769 49.1926Z" transform="matrix(1 0 0 1.00696 1008 474)"/><path d="M23.7446 34.7985C24.3068 34.7985 24.8695 34.7985 25.4318 34.7985 25.8821 34.7985 25.8829 34.099 25.4318 34.099 24.8695 34.099 24.3068 34.099 23.7446 34.099 23.2943 34.099 23.2935 34.7985 23.7446 34.7985L23.7446 34.7985Z" transform="matrix(1 0 0 1.00696 1008 474)"/><path d="M30.8077 56.5981C34.4276 56.6837 38.0463 56.8184 41.6625 57.002 42.1124 57.0248 42.1112 56.3254 41.6625 56.3026 38.0463 56.1189 34.4276 55.9842 30.8077 55.8987 30.3574 55.8877 30.3574 56.5876 30.8077 56.5981L30.8077 56.5981Z" transform="matrix(1 0 0 1.00696 1008 474)"/><path d="M31.4506 60.7323C34.9829 60.6818 38.5157 60.6806 42.0477 60.7282 42.498 60.7343 42.4984 60.0348 42.0477 60.0287 38.5153 59.9811 34.9825 59.9823 31.4506 60.0328 31.0007 60.0389 30.9994 60.7388 31.4506 60.7323L31.4506 60.7323Z" transform="matrix(1 0 0 1.00696 1008 474)"/><path d="M32.1232 64.8656C35.4906 64.8066 38.8593 64.7964 42.2272 64.8355 42.6775 64.8408 42.6779 64.1409 42.2272 64.136 38.8593 64.0969 35.491 64.1067 32.1232 64.1661 31.6737 64.1739 31.672 64.8737 32.1232 64.8656L32.1232 64.8656Z" transform="matrix(1 0 0 1.00696 1008 474)"/><path d="M32.742 68.9993C35.9556 68.9321 39.17 68.9138 42.384 68.9448 42.8343 68.9492 42.8347 68.2494 42.384 68.2453 39.17 68.2143 35.9556 68.2323 32.742 68.2998 32.2925 68.3092 32.2909 69.0087 32.742 68.9993L32.742 68.9993Z" transform="matrix(1 0 0 1.00696 1008 474)"/><path d="M32.7384 73.0463C35.9796 73.0329 39.2209 73.0687 42.4613 73.1538 42.9116 73.1656 42.9116 72.4661 42.4613 72.4543 39.2209 72.3696 35.9796 72.3338 32.7384 72.3468 32.2885 72.3485 32.2877 73.0484 32.7384 73.0463L32.7384 73.0463Z" transform="matrix(1 0 0 1.00696 1008 474)"/><path d="M32.7192 77.1418C36.0154 77.1438 39.3113 77.1947 42.6059 77.2944 43.0562 77.3083 43.0558 76.6084 42.6059 76.595 39.3113 76.4948 36.0154 76.4439 32.7192 76.4423 32.2689 76.4419 32.2681 77.1418 32.7192 77.1418L32.7192 77.1418Z" transform="matrix(1 0 0 1.00696 1008 474)"/><path d="M32.3548 81.1448C35.7268 81.2022 39.0975 81.3089 42.4662 81.4644 42.9165 81.4852 42.9153 80.7857 42.4662 80.7649 39.0975 80.6094 35.7268 80.5027 32.3548 80.4453 31.9045 80.4372 31.9041 81.1371 32.3548 81.1448L32.3548 81.1448Z" transform="matrix(1 0 0 1.00696 1008 474)"/><path d="M32.0438 85.1674C35.6629 85.285 39.2799 85.4524 42.8945 85.6681 43.3444 85.695 43.3428 84.9951 42.8945 84.9687 39.2799 84.7525 35.6629 84.5856 32.0438 84.4679 31.5935 84.4532 31.5939 85.1527 32.0438 85.1674L32.0438 85.1674Z" transform="matrix(1 0 0 1.00696 1008 474)"/><path d="M31.7474 89.3475C35.3677 89.4212 38.9864 89.5437 42.6034 89.7156 43.0537 89.7371 43.0525 89.0373 42.6034 89.0161 38.9868 88.8443 35.3677 88.7217 31.7474 88.648 31.2971 88.6387 31.2971 89.3381 31.7474 89.3475L31.7474 89.3475Z" transform="matrix(1 0 0 1.00696 1008 474)"/><path d="M54.3959 176.123C54.3271 175.946 54.1761 175.92 54.049 175.981 53.7034 175.772 53.2128 175.785 52.8309 175.71 52.4249 175.63 52.0219 175.527 51.6212 175.419 48.6161 174.626 45.8036 173.213 43.2606 171.407 46.2726 171.024 49.3416 170.956 52.3215 170.39 52.7747 170.241 52.8068 169.71 52.5621 169.405 52.2413 168.215 52.3325 166.964 52.2588 165.74 52.1774 162.316 52.1118 158.891 52.0491 155.466 51.7324 141.387 51.7674 127.277 51.3619 113.212 52.0931 111.924 52.5483 109.411 52.839 107.779 53.2303 106.09 53.3072 105.972 53.0519 104.35 52.6367 100.395 52.3048 96.6183 51.8667 92.673 51.6892 91.2961 51.8773 89.025 51.5765 87.6762 51.7365 87.3712 51.9046 86.2886 51.9889 85.9666 52.1127 85.4951 52.2828 85.0403 52.3594 84.5546 52.611 83.1105 51.5484 82.8519 52.2222 81.3419 52.4534 80.7039 52.784 80.098 52.8838 79.4152 52.9811 78.7496 52.9994 78.077 52.9896 77.4044 52.738 69.1776 52.2951 61.8894 50.877 53.7828 50.7459 52.9962 49.6226 44.2817 48.5693 41.9817 47.0193 38.8683 43.4458 36.4747 40.4012 34.8616 39.5087 34.3702 39.6761 33.8796 39.6761 33.8796 39.6883 33.7269 37.8366 35.0574 38.0882 36.9279 38.4522 40.5241 38.4502 44.6395 36.3762 47.7412 31.7189 43.1909 27.917 37.5785 24.8601 31.7217 25.0613 31.6391 25.2673 31.5581 25.4619 31.4612 25.648 32.1908 29.8423 30.429 30.2344 27.8119 30.267 27.636 28.5411 30.2918 25.8589 30.6737 25.1142 30.3305 23.2992 31.2087 22.4983 31.4664 19.2033 32.7518 16.1497 34.5298 13.3331 36.717 12.8523 37.1074 9.85204 39.4566 10.442 40.0026 8.5329 45.1733 7.25244 50.5891 6.06439 55.9756 4.21271 64.1107 2.76369 71.6368 2.85407 80.039 2.69325 80.8814 2.64684 81.7486 2.50434 82.595 2.38423 83.3967 2.11714 84.1756 2.09231 84.9919 2.05729 86.1417 2.64399 86.9747 3.20259 87.872 3.67406 88.6065 4.09871 89.3658 4.62066 90.0685 5.0388 93.2968 5.7114 96.4831 6.32985 99.6767 6.43489 100.203 6.54075 100.729 6.64742 101.254 6.78381 101.837 6.81028 102.495 7.06678 103.032 6.98616 105.052 7.40471 107.074 7.87374 109.026 8.23365 109.964 8.79103 114.404 10.2966 113.546 10.3011 113.555 10.306 113.564 10.3105 113.573 10.2458 113.603 10.1936 113.662 10.1774 113.758 10.1774 113.758 10.6871 114.203 10.6814 114.195 10.9477 114.554 11.4265 115.067 11.9036 115.11 12.2526 116.026 12.7855 116.867 13.8062 116.245 14.2427 117.058 15.403 117.379 15.7747 116.328 15.9384 115.854 15.7882 115.375 15.6432 114.925 15.3631 114.072 15.0667 113.227 14.8371 112.359 15.4572 112.898 16.1851 112.796 16.3386 111.887 16.4783 111.169 16.0732 110.672 15.7609 110.105 15.2194 109.123 15.1164 107.938 15.0317 106.811 14.9083 104.776 14.6018 102.309 12.6312 101.246 12.7407 100.396 12.6043 99.5358 12.6055 98.6841 12.5754 97.7008 12.5644 96.7164 12.5705 95.7323 12.6104 95.7132 12.617 95.7099 12.6573 95.6904 15.8273 97.88 25.2294 98.3148 29.0969 97.7318 29.5928 97.5396 31.4208 97.9476 30.9917 96.9924 31.3667 95.911 31.7124 94.8175 32.034 93.7149 35.3372 94.6514 38.8642 94.8663 42.2468 94.2857 42.2814 95.5959 42.1112 97.6182 43.7467 97.9052 45.0805 98.1874 46.4921 98.0257 47.7265 97.4191 47.7794 99.0302 48.0575 98.9162 48.3055 100.468 48.4186 101.177 47.6524 101.568 48.0201 103.084 48.7407 106.055 46.8536 110.176 50.1189 109.86 50.4768 109.826 49.399 111.343 49.3197 112.388 49.2472 113.338 48.5208 114.83 49.4141 115.777 49.5582 115.929 50.0484 116.043 50.151 115.818 50.355 115.368 50.7056 114.598 50.9767 114.013 50.3794 127.306 50.9849 140.629 51.0879 153.93 51.1587 158.649 51.2821 163.368 51.3546 168.087 51.3049 168.453 51.1249 168.815 51.2161 169.177 48.0115 169.538 44.8081 169.875 41.5998 170.203 35.5936 170.815 29.5728 171.776 23.5239 171.215 18.0352 170.864 12.6068 169.877 7.18404 168.996 8.53575 150.769 9.81377 132.524 10.512 114.257 10.5275 113.871 9.94487 113.879 9.91678 114.257 8.54837 131.834 7.76503 149.452 6.26674 167.019L6.25371 167.014C6.30868 167.78 5.57541 169.443 6.14501 169.618 10.3068 170.936 14.6392 171.5 18.9423 172.088 18.5568 174.082 18.8511 176.09 18.99 178.097 18.3027 179.245 18.1749 180.673 18.1032 181.983 18.1476 182.409 17.8345 183.798 18.4179 183.836 19.4614 185.051 21.1095 185.651 22.6534 185.866 24.8614 186.212 30.0313 185.232 29.0431 182.043 29.1978 178.6 26.9048 177.405 27.4695 174.033 27.5269 173.603 27.6385 173.17 27.632 172.734 28.3192 172.742 29.0069 172.735 29.6937 172.711 29.6066 173.542 29.6636 174.388 29.791 175.211 29.8399 175.711 30.0142 176.178 30.3114 176.576 30.668 177.068 30.5325 177.68 30.5744 178.248 30.6025 178.597 31.0051 178.758 31.1896 178.526 32.1044 178.65 33.0453 178.601 33.9639 178.741 34.941 178.859 35.9104 179.051 36.8696 179.289 40.0588 180.025 43.0464 181.581 46.2795 182.137 48.6548 182.479 52.0561 182.611 54.0787 181.141 55.391 179.833 55.0249 177.67 54.3959 176.123ZM48.4728 43.3664C49.3921 47.4692 51.7747 65.186 52.065 72.4462 52.1481 75.2038 52.6411 78.0542 51.5765 80.692 51.1086 81.8695 50.9665 82.5494 51.515 83.744 51.723 84.875 50.7443 86.0081 51.0736 87.1322 50.7923 87.1489 50.5101 87.1628 50.2325 87.2234 50.1865 87.2336 49.5428 87.2304 49.4874 87.2507 50.1059 74.0654 49.5012 59.1428 48.3152 45.4937 48.1255 43.1799 48.1638 41.0233 48.4728 43.3664ZM9.66394 112.33C9.54424 112.064 9.46933 111.772 9.39564 111.483 9.56541 111.9 9.73682 112.318 9.91841 112.729 9.80441 112.627 9.72827 112.473 9.66394 112.33ZM13.1279 102.233C14.8628 104.103 14.1099 106.878 14.6962 109.155 14.8066 109.623 14.9662 110.085 15.1917 110.499 15.4458 110.936 15.8281 111.412 15.5866 111.927 15.1278 111.792 14.8656 111.295 14.5028 111.034 14.408 110.623 14.3192 110.209 14.237 109.795 14.1747 109.481 13.759 109.602 13.8042 109.914 13.8913 110.459 13.967 111.009 14.0802 111.545 14.3192 112.745 14.5684 113.952 14.9295 115.121 14.9991 115.337 15.3485 116.338 14.8204 116.168 14.4475 116.049 14.2508 115.519 14.0912 115.171 13.4764 113.831 12.9146 112.464 12.4056 111.08 12.3055 110.807 12.2326 110.521 12.0551 110.298 11.8768 110.074 11.4924 110.225 11.4993 110.535 11.5466 111.086 11.8259 111.577 11.9952 112.096 12.4903 113.382 13.0135 114.658 13.6067 115.901 12.8397 116.269 12.5477 115.486 12.2953 114.922 12.3063 114.86 12.2823 114.792 12.2184 114.759 11.4961 113.283 10.9074 111.725 10.1529 110.271 9.29426 109.661 11.481 114.173 11.5791 114.418 10.4717 113.913 9.53406 109.802 9.06992 110.257 8.4018 107.885 7.95231 105.461 7.64614 103.017 7.86478 102.679 7.42791 101.552 7.37173 101.113 7.25773 100.589 7.14495 100.065 7.03299 99.5411 6.37464 96.5564 5.83599 93.5435 5.13285 90.5689 5.28431 90.6479 5.48096 90.6088 5.56646 90.4468 7.7805 91.005 10.2177 91.2301 12.2615 90.0177 11.8935 93.3741 11.8185 96.7713 11.9521 100.145 12.0954 102.014 12.0812 101.256 13.1279 102.233ZM30.6416 95.0691C30.5736 95.6912 30.1843 96.24 30.0512 96.8446 24.4876 97.0535 18.8047 96.9151 13.4377 95.2543 13.3075 95.214 12.6862 95.0113 12.5762 95.0051 12.6015 93.3375 12.6776 91.6698 12.7847 90.0059 12.7932 89.8731 12.7367 89.7872 12.6581 89.7473 12.7586 89.6671 12.8527 89.5808 12.9382 89.4876 13.3616 89.4428 13.7732 87.5325 13.8933 87.0915 14.2655 85.5147 14.603 83.7069 13.7195 82.2445 14.2378 75.516 14.6266 69.2106 15.0855 62.4981 15.1815 60.3996 15.3318 58.2727 15.2381 56.1735 15.2223 55.814 14.7789 55.8034 14.739 56.1592 14.3974 59.8622 14.3949 63.5982 14.1425 67.3097 13.8351 72.1555 13.3844 76.0803 13.1365 80.9575 13.0697 80.8158 12.9129 80.484 12.7464 80.6884 12.4516 81.1375 12.8413 81.83 13.0815 82.2705 13.0868 82.4025 13.1454 82.4924 13.2256 82.5413 14.0314 83.8482 13.6503 85.4479 13.3714 86.8574 13.226 87.5662 13.0184 87.6721 12.8804 88.3822 10.8007 90.0307 8.08708 89.9603 5.60799 89.4623 5.47851 88.8361 5.08684 88.9188 4.7595 88.4497 4.23429 87.5605 3.58571 86.7511 3.16269 85.8021 2.83575 84.9544 3.14314 84.0375 3.26691 83.1756 3.38214 82.1635 3.51079 81.1248 3.45786 80.107 4.49404 66.5031 7.15879 53.0784 10.9827 39.9761 11.8629 39.2934 12.7774 38.6708 13.623 37.9384 16.2804 35.8147 19.2509 34.0412 22.3526 32.7111 24.3537 36.3697 24.5206 40.0063 26.1235 43.9104 29.4873 52.0903 31.6281 60.8512 32.2095 69.7236 32.5152 74.3931 32.4065 76.7517 31.8654 81.4013 31.3252 86.046 31.5959 88.0296 30.6416 95.0691ZM41.3511 93.5407C38.1705 93.7389 34.8075 93.4344 31.659 92.947 31.7787 87.8598 33.792 75.4371 33.1825 69.0518 32.6239 60.6781 30.4368 52.8064 27.5147 44.9783 25.8031 40.5982 25.6789 36.2968 23.0345 32.4257 23.53 32.2213 24.0324 32.0397 24.5324 31.85 27.1788 38.1941 31.2771 43.8464 36.1042 48.6601 36.2671 48.8189 36.4975 48.8527 36.6685 48.6764 38.554 46.5222 38.9155 43.3387 39.0491 40.5526 42.7113 57.9881 41.8531 75.8043 42.2301 93.5175 41.9398 93.4702 41.5848 93.5366 41.3511 93.5407ZM48.312 94.7328C47.5327 96.5266 46.6651 97.016 44.8382 96.9892 44.4172 96.9798 43.6591 97.0063 43.3896 96.5902 43.1494 96.2193 43.2162 95.5499 43.1966 95.1037 43.1791 94.7043 43.1641 94.3049 43.151 93.9051 42.6099 74.7645 43.8611 55.3218 39.0218 36.6237 38.7734 36.1775 39.1663 35.2773 39.1704 35.2635 42.0102 37.0329 44.8468 38.6623 47.0498 41.2761 47.3177 41.5795 46.9656 42.1519 47.3817 42.2219 48.6059 55.0636 49.3795 68.181 49.0383 80.9249 48.0127 77.9703 46.8353 75.0694 45.4384 72.2805 45.3093 72.0228 44.9799 72.2491 45.0882 72.5085 46.0417 74.793 46.9542 77.1039 47.7896 79.4376 47.9252 79.8204 48.0587 80.2043 48.1894 80.589 48.3486 80.931 48.5208 82.0658 49.011 81.9249 48.8913 86.1673 48.6809 90.4081 48.3702 94.6395 48.3498 94.6672 48.3299 94.6978 48.312 94.7328ZM50.158 114.561C49.8436 114.858 49.3396 114.539 49.4707 114.127 49.6572 113.537 50.0757 111.844 50.1331 111.625 50.5162 110.167 50.7377 109.112 50.96 107.292 51.0838 106.268 51.2178 105.12 50.9584 104.115 50.9059 103.911 50.6115 103.927 50.6123 104.157 50.614 104.629 50.3937 105.131 50.3746 105.605 50.3298 106.576 50.265 107.554 50.1059 108.515 50.0171 108.986 49.4288 109.166 49.1161 108.803 48.1312 107.661 49.1226 106.745 48.5542 103.896 48.5542 103.768 48.2802 103.148 48.4887 102.171 48.6283 101.515 48.9943 101.668 48.9264 100.971 48.7912 99.748 48.645 98.2464 48.3995 97.0079 48.4585 96.9647 48.4581 96.5531 48.3987 96.5091 48.3213 96.5242 49.5489 94.9107 49.0937 94.5756 49.2411 92.2863 49.3648 89.9957 49.467 87.7043 49.794 87.8199 50.7206 87.7678 51.0305 87.7649 50.5476 93.2882 51.8704 98.4007 52.3765 103.809 52.4811 104.5 52.4461 105.234 52.6501 105.903 52.554 106.564 52.3358 107.497 52.2075 108.159 51.7572 110.166 51.3297 112.823 50.158 114.561ZM27.1259 184.095C24.4628 185.358 21.1877 185.167 18.8043 183.383 18.8316 183.132 18.8116 182.876 18.8247 182.625 21.2647 184.359 25.0613 184.333 27.8514 183.549 27.656 183.77 27.4105 183.95 27.1259 184.095ZM28.0379 180.348C28.1812 181.032 28.2207 181.74 28.1613 182.438 25.6887 183.331 23.0117 183.432 20.5066 182.627 19.9284 182.453 19.3324 182.218 18.8568 181.8 18.9224 180.712 19.0588 179.61 19.4627 178.594 20.0913 178.421 19.6666 176.813 19.6829 176.277 19.5799 174.909 19.4073 173.532 19.5543 172.16 22.0093 172.441 24.4713 172.661 26.9423 172.723 26.4602 174.394 26.3495 176.279 27.0998 177.879 27.4553 178.695 27.8506 179.455 28.0379 180.348ZM54.1398 179.527C54.0323 179.95 53.8275 180.351 53.5018 180.61 51.2849 181.801 48.5485 181.67 46.1309 181.295 43.1038 180.705 40.2778 179.28 37.2678 178.61 35.3241 178.173 33.3067 177.762 31.3129 177.957 31.3243 177.673 31.3219 177.395 31.3064 177.111 35.9715 176.808 40.301 178.835 44.6705 180.14 47.8263 180.866 51.2841 180.806 54.198 179.24 54.1834 179.335 54.1642 179.431 54.1398 179.527ZM49.5049 179.862C46.6688 180.14 43.912 179.314 41.2818 178.327 38.0353 177.23 34.6409 176.232 31.1851 176.546 31.0573 176.235 30.8451 175.976 30.7263 175.663 30.4661 174.697 30.4494 173.673 30.4518 172.677 34.0494 172.415 37.6338 171.949 41.2265 171.614 40.9708 171.832 40.7485 172.096 40.5531 172.382 40.2774 172.786 40.8784 173.293 41.1821 172.923 41.5933 172.381 42.1853 172.151 42.7875 171.906 42.9096 172.004 43.0297 172.099 43.1531 172.194 42.6906 172.603 42.4072 173.127 42.3046 173.745 42.1959 174.174 42.7565 174.491 42.9821 174.064 43.1726 173.522 43.6078 173.162 44.0134 172.807 44.21 172.938 44.4079 173.065 44.6074 173.19 44.0663 173.431 43.7593 174.062 43.6946 174.718 43.6563 175.108 44.1636 175.126 44.2699 174.805 44.4502 174.16 45.1941 174.069 45.2979 173.609 47.9627 175.123 50.89 176.334 53.9212 176.727 54.0494 177.301 54.1956 177.882 54.2294 178.467 52.7771 179.344 51.1473 179.758 49.5049 179.862Z" transform="matrix(1 0 0 1.00696 1008 474)"/><path d="M-702.114-3.16554C-708.205-5.15565-721.396-3.61258-718.729 11.0425-718.314 11.3984-719.141 14.2158-718.835 14.6575-717.789 16.359-716.242 16.5813-714.898 16.0186-714.528 16.425-714.287 17.0613-713.754 17.2384-711.148 19.7362-707.154 20.3995-703.653 19.7786-701.515 19.61-699.712 18.981-698.458 17.1375-697.407 15.743-697.517 14.41-697.798 12.8091-697.9 11.935-698.026 11.2713-698.018 10.3915-697.851 10.2307-697.839 9.51208-697.782 9.29507-697.55 8.52842-697.517 8.30531-697.269 7.54232-696.715 5.80993-696.027-1.17542-702.114-3.16554Z" fill="#FFFFFF" transform="matrix(1 0 0 1.00696 1749.81 487.939)"/><path d="M-721.567-8.69698C-719.869-11.4159-715.977-11.9912-713.791-10.3435-712.748-9.56094-711.906-8.1339-711.873-6.46584-711.873-6.46584-711.922-6.33921-711.832-6.17595-708.424-7.05171-704.866-6.66493-701.694-5.11738-699.663-4.39266-697.916-2.81091-696.984-0.798407-696.137 1.01094-696.015 3.29216-696.255 5.41907-696.349 5.97116-696.475 6.51184-696.817 7.21498-697.045 7.68808-697.562 8.51743-697.786 9.00111-697.639 8.19538-697.692 7.24796-697.594 6.43734-697.717 3.35404-701.279 2.70058-703.05-0.469436-703.05-0.469436-703.225-0.535393-703.282-0.431571-705.123 2.95911-710.102 4.50096-713.782 4.18299-713.945 3.95132-714.438 4.05392-714.401 4.37312-714.043 6.98169-714.137 9.40785-714.727 11.9745-714.975 12.9174-715.179 14.0073-715.786 14.6592-715.855 14.7154-715.13 15.7756-714.979 16.0121-716.026 16.6908-717.992 16.1375-718.668 14.9185-718.803 14.7129-719.104 14.2695-719.246 14.0766-719.405 13.6136-719.67 13.3795-720.162 13.0408-723.558 10.1716-722.87 5.54936-720.215-0.344443-720.077-0.657536-719.926-0.863143-719.926-0.863143-720.745-1.03984-721.754-1.35375-722.174-1.93678-723.44-3.70256-722.76-7.03665-721.567-8.69698Z" fill="#FFFFFF" transform="matrix(1 0 0 1.00696 1749.81 487.939)"/><path d="M-707.256 20.259-707.256 20.259C-708.058 20.187-708.709 20.0493-709.247 19.838-709.56 19.7196-709.849 19.5587-710.118 19.3596-710.383 19.1601-710.603 18.9114-710.774 18.6268-710.843 18.4941-710.835 18.3332-710.749 18.2103-710.603 18.014-710.334 17.9591-710.122 18.0833L-710.057 18.1341-710.057 18.135C-709.487 18.5657-708.901 19.0111-708.164 19.1382-707.846 19.1813-707.525 19.2176-707.207 19.246-705.876 19.3649-703.922 19.4101-702.15 18.9476-700.302 18.4643-699.019 17.5328-698.34 16.1778-697.941 15.2043-698.079 14.1645-698.209 13.1589-698.287 12.575-698.368 11.9708-698.344 11.3845-698.372 10.8976-698.356 10.4094-698.303 9.92451-698.258 9.44246-698.181 8.95511-698.107 8.48445-698.006 7.84971-697.904 7.1934-697.867 6.5379-698.209 4.85884-699.398 3.86216-700.55 2.89886-701.059 2.47095-701.589 2.02879-702.032 1.53371-702.256 1.28739-702.456 1.02111-702.631 0.738557-702.81 0.446229-702.957 0.133543-703.062-0.192986-703.319 0.256093-703.62 0.677893-703.966 1.06631-704.304 1.44984-704.675 1.80161-705.078 2.11714-705.9 2.75269-706.812 3.26366-707.781 3.63416-708.766 4.01443-709.792 4.28396-710.839 4.43867-711.857 4.59339-712.887 4.6512-713.917 4.6113-713.725 6.48456-713.725 8.27029-713.913 9.91881-714.01 10.8003-714.169 11.6736-714.393 12.5323-714.617 13.3885-714.914 14.2235-715.281 15.0289-714.951 15.5683-714.511 16.0321-713.986 16.3895-713.913 16.438-713.839 16.4824-713.762 16.5227-713.546 16.6395-713.326 16.76-713.253 16.9868-713.249 17.1639-713.286 17.2905-713.363 17.363-713.436 17.4237-713.53 17.4497-713.624 17.4347-714.116 17.3903-714.943 16.6908-715.126 16.4193-715.452 16.5569-715.855 16.6053-716.319 16.5638-716.942 16.4966-717.549 16.3207-718.106 16.0443-718.644 15.7853-719.075 15.4739-719.254 15.2113-719.385 15.0264-719.462 14.8021-719.539 14.5851-719.641 14.2838-719.751 13.9727-719.991 13.7655-721.026 13.0872-721.787 12.093-722.247 10.8105-722.467 10.1908-722.613 9.54831-722.691 8.89526-722.772 8.21004-722.793 7.51952-722.756 6.83064-722.719 6.12384-722.634 5.41989-722.499 4.72489-722.369 4.03519-722.194 3.35364-721.982 2.6847-721.783 2.04834-721.543 1.42459-721.266 0.817136-721.013 0.2679-720.724-0.262607-720.403-0.770314-720.513-0.763393-720.622-0.764614-720.732-0.774386-721.091-0.807364-721.437-0.930729-721.734-1.13267-722.035-1.33665-722.292-1.596-722.495-1.89647-722.703-2.20509-722.87-2.5422-722.984-2.89804-723.102-3.24452-723.167-3.60484-723.183-3.96924-723.253-4.48346-723.253-5.0046-723.183-5.51882-723.118-6.03182-722.992-6.53546-722.813-7.01996-722.447-7.99344-721.885-8.88223-721.164-9.63259-720.842-9.96848-720.488-10.2738-720.109-10.5438-719.743-10.8084-719.344-11.0344-718.929-11.218-718.522-11.3976-718.098-11.5287-717.659-11.6085-717.227-11.6874-716.783-11.7082-716.343-11.6695-715.839-11.6239-715.346-11.4977-714.882-11.2962-714.369-11.0702-713.892-10.7673-713.469-10.3976-712.948-9.93795-712.516-9.38668-712.191-8.77149-712.032-8.46409-711.91-8.1396-711.82-7.80452-711.735-7.46781-711.69-7.12134-711.694-6.77364-710.139-7.0167-708.559-7.06678-706.987-6.92265-705.68-6.81028-704.386-6.55581-703.132-6.16333-701.833-5.7513-700.677-5.20125-699.699-4.52824-698.633-3.79579-697.782-2.92166-697.167-1.92986-696.841-1.40098-696.577-0.834236-696.385-0.24225-696.182 0.394114-696.055 1.05246-696.007 1.71896-695.901 2.62933-695.884 3.54784-695.95 4.46188-696.015 5.3751-696.186 6.27733-696.459 7.15106-696.585 7.51464-696.727 7.87129-696.894 8.21899-697.069 8.59356-697.224 8.97954-697.354 9.37406-697.362 9.41233-697.375 9.45182-697.383 9.48969-697.428 9.67209-697.468 9.86019-697.607 9.99291-697.664 10.9444-697.537 11.9-697.415 12.8246-697.305 13.6474-697.191 14.498-697.212 15.3395-697.277 15.8586-697.419 16.3639-697.643 16.8382-697.847 17.269-698.116 17.6651-698.441 18.012-698.767 18.354-699.138 18.6516-699.537 18.8975-699.956 19.1516-700.396 19.3641-700.852 19.5319-701.703 19.8494-702.708 20.0721-703.836 20.1943-704.813 20.2953-705.802 20.3286-706.788 20.2944-706.955 20.2834-707.105 20.272-707.256 20.259ZM-706.894-6.13849C-712.858-6.67226-719.723-3.49451-721.306 3.61217-722.304 8.0313-721.803 11.093-719.829 12.7126-719.605 12.8584-719.397 13.029-719.214 13.2216-719.035 13.4154-718.892 13.6421-718.798 13.8893-718.68 14.0456-718.575 14.2146-718.469 14.3778-718.192 14.8078-717.907 15.252-717.467 15.5378-717.178 15.6974-716.747 15.8961-716.303 15.9356-716.038 15.9677-715.773 15.9177-715.537 15.7923-715.639 15.6335-715.737 15.4779-715.834 15.3175-715.957 15.3448-716.083 15.3529-716.209 15.342-716.286 15.3371-716.356 15.32-716.429 15.2915-716.482 15.2727-716.523 15.2316-716.543 15.1787-716.571 15.081-716.49 14.9527-716.295 14.798-715.818 14.2317-715.635 13.4626-715.456 12.7187L-715.456 12.7183C-715.399 12.4875-715.35 12.2697-715.289 12.0583-714.69 9.48643-714.564 6.82697-714.922 4.21026-714.947 4.06939-714.902 3.92526-714.804 3.82144-714.69 3.70785-714.532 3.65004-714.373 3.66429-714.275 3.67121-714.181 3.71274-714.108 3.78154-712.024 3.96394-709.589 3.58652-707.598 2.77142-705.925 2.08742-703.767 0.778457-703.005-1.57076-702.973-1.6074-702.944-1.62531-702.92-1.62328-702.9-1.61921-702.883-1.60496-702.875-1.58501-702.818-1.47508-702.839-1.17013-702.847-1.04432-702.867-0.824464-702.904-0.61275-702.932-0.562671-702.354 0.446636-701.32 1.25807-700.318 2.04304-699.944 2.33659-699.557 2.63991-699.199 2.94894-698.844 3.24656-698.519 3.57146-698.217 3.92079-697.928 4.25261-697.692 4.62433-697.513 5.02455-697.33 5.43536-697.232 5.87792-697.224 6.32659-697.261 6.57454-697.289 6.82616-697.314 7.06963-697.342 7.3131-697.366 7.56553-697.407 7.80615-697.338 7.66813-697.269 7.52889-697.204 7.39412-696.886 6.76468-696.556 6.11366-696.434 5.3979-695.994 1.46246-697.452-3.1806-701.694-4.68133-703.323-5.48747-705.086-5.98215-706.894-6.13971L-706.894-6.13849ZM-716.347-10.8109C-718.245-10.9806-720.093-10.0467-721.172-8.37289-722.447-6.47439-722.955-3.62683-721.473-1.85657-721.119-1.49096-720.663-1.23934-720.162-1.1343-719.271-2.4795-718.135-3.65004-716.824-4.58891-716.168-5.05671-715.472-5.46304-714.743-5.8026-714.01-6.14256-713.249-6.41128-712.463-6.60426-712.598-8.9604-714.124-10.6114-716.347-10.8109L-716.347-10.8109Z" transform="matrix(1 0 0 1.00696 1749.81 487.939)"/><path d="M35.864-474.203C35.1889-474.195 34.5335-474.513 34.0941-475.022 33.8523-475.27 33.3902-476.211 33.8584-476.28 33.9235-476.28 33.9883-476.243 34.0156-476.186 34.7399-475.05 36.1164-474.59 37.0691-475.698 37.1457-475.791 37.2605-475.852 37.383-475.852L37.3859-475.852C37.5121-475.848 37.6322-475.795 37.7197-475.706 37.8122-475.616 37.8675-475.494 37.8757-475.364 37.8802-475.242 37.8333-475.119 37.7466-475.03 37.2662-474.517 36.57-474.203 35.864-474.203Z" transform="matrix(1 0 0 1.00696 1010.04 981.963)"/><path d="M36.5704-477.501C36.0745-477.485 34.2867-478.096 35.0061-478.763 35.0692-478.82 35.1499-478.853 35.2337-478.853 35.2964-478.853 35.3575-478.837 35.41-478.8 35.8489-478.446 36.6677-477.831 37.1958-478.405 37.7108-479.028 36.9071-479.806 36.5476-479.985 36.4983-480.03 36.482-480.099 36.5073-480.156 36.5374-480.249 36.6249-480.31 36.7231-480.31 37.4632-480.253 38.0573-479.561 37.9644-478.82 37.9225-478.104 37.3-477.473 36.5704-477.501Z" transform="matrix(1 0 0 1.00696 1010.04 981.963)"/><path d="M30.894-479.781C30.8663-479.781 30.8386-479.785 30.8118-479.793 30.7613-479.806 30.7193-479.842 30.699-479.891 30.5557-480.27 30.6575-480.665 30.7682-480.929 31.361-482.383 32.7945-482.371 33.4944-481.117 33.5368-481.056 33.5807-480.99 33.6255-480.929 33.7045-480.828 33.7281-480.697 33.6894-480.575 33.6451-480.453 33.551-480.359 33.4309-480.31 33.2005-480.205 32.909-480.323 32.8255-480.563 32.7099-480.84 32.5397-481.068 32.3585-481.182 32.2107-481.284 32.0193-481.3 31.8577-481.222 31.7054-481.153 31.4493-480.925 31.2751-480.64 31.1411-480.441 31.0744-480.201 31.0837-479.96 31.0951-479.871 31.0141-479.793 30.9258-479.785 30.9152-479.781 30.9046-479.781 30.894-479.781Z" transform="matrix(1 0 0 1.00696 1010.04 981.963)"/><path d="M39.49-480.62C39.3243-480.62 39.1578-480.738 39.1236-480.905 39.0711-481.19 38.8056-481.467 38.4966-481.406 38.2832-481.365 38.0992-481.222 37.995-481.031L37.9925-481.027C37.9473-480.946 37.8891-480.868 37.8207-480.803 37.7788-480.766 37.7193-480.75 37.6664-480.771 37.4974-480.938 37.4783-481.06 37.4828-481.17 37.493-481.3 37.5394-481.43 37.6171-481.54 38.0414-482.134 38.7514-482.301 39.3162-481.898 39.6529-481.662 40.1194-480.99 39.6683-480.669 39.6138-480.64 39.5523-480.62 39.49-480.62Z" transform="matrix(1 0 0 1.00696 1010.04 981.963)"/><path d="M29.8244-482.2C29.82-482.2 29.8159-482.2 29.8118-482.204 29.7882-482.204 29.7666-482.216 29.7491-482.232 29.6604-482.305 29.6176-482.432 29.6209-482.607 29.7182-483.641 30.6615-484.569 31.6505-484.928 32.0348-485.082 32.718-485.253 33.0848-484.883 33.1825-484.785 33.2363-484.655 33.2338-484.516 33.2359-484.378 33.1817-484.243 33.084-484.142 32.8194-483.873 32.4188-483.918 32.0784-483.844 31.2678-483.673 30.5683-483.185 30.0765-482.521 30.0317-482.448 29.9954-482.358 29.9502-482.293 29.916-482.236 29.8985-482.22 29.8847-482.216 29.8651-482.208 29.8448-482.2 29.8244-482.2L29.8244-482.2Z" transform="matrix(1 0 0 1.00696 1010.04 981.963)"/><path d="M39.9745-482.33C39.9232-482.33 39.8748-482.367 39.8642-482.419 39.7204-483.051 39.4342-483.445 38.9367-483.698 38.6607-483.824 38.3708-483.922 38.0723-483.987 37.5903-484.052 36.8444-484.154 36.9295-484.822 37.1005-485.55 38.0764-485.237 38.521-485.017L38.5218-485.017C38.5446-485.005 38.5666-484.997 38.5886-484.989 38.9839-484.83 39.3418-484.594 39.6382-484.288 40.0612-483.873 40.5262-482.733 39.9745-482.33L39.9745-482.33Z" transform="matrix(1 0 0 1.00696 1010.04 981.963)"/><path d="M29.0619-207.401C27.3038-207.434 25.9269-208.693 26.4447-210.518 26.356-210.492 26.264-210.48 26.1715-210.482 26.0364-210.481 25.902-210.502 25.773-210.542 25.6614-210.571 25.5612-210.633 25.4855-210.72 23.688-210.874 21.9051-211.242 20.0868-211.128 19.9154-211.104 19.9252-210.982 19.9345-210.863 19.9431-210.807 19.9406-210.75 19.9264-210.695 19.902-210.638 19.8462-210.6 19.7839-210.599 19.6544-210.611 19.5726-210.694 19.5534-210.833 19.5412-210.948 19.562-211.066 19.6129-211.17 19.6528-211.271 19.7289-211.353 19.8266-211.4 19.9284-211.473 20.2387-211.512 20.7232-211.512 22.2284-211.496 24.1806-211.24 25.5099-210.897 25.6292-210.975 25.788-211.014 25.9949-211.014 26.1487-211.01 26.3018-210.997 26.4541-210.973 26.5034-210.967 26.5498-210.961 26.5933-210.955 27.0318-211.995 28.2101-213.072 29.4075-212.89 30.5842-212.835 31.5055-212.295 31.8451-211.124 32.4558-211.654 33.4358-211.826 34.1556-211.423 34.509-212.242 35.2097-212.909 36.0667-213.174 36.3025-213.349 36.5875-213.443 36.8806-213.446 37.8289-213.423 38.565-212.552 38.8276-211.7 38.9799-211.828 39.2437-211.847 39.3878-211.848 39.4497-211.838 39.5059-211.808 39.5482-211.762 39.6643-211.605 39.5503-211.43 39.2995-211.428 39.15-211.435 39.0039-211.477 38.8728-211.549 40.0107-206.925 32.8487-206.623 34.0392-211.119 33.3316-211.292 32.5547-211.307 31.8895-210.977 32.4196-209.175 30.8952-207.376 29.0619-207.403L29.0619-207.401ZM29.3912-212.518 29.3912-212.518C28.9479-212.509 28.5098-212.422 28.0973-212.259 26.6463-211.262 25.9171-208.858 28.0159-208.008 28.3388-207.877 28.6836-207.811 29.0317-207.812 29.8501-207.812 30.6143-208.178 31.0764-208.791 32.2152-210.255 31.3781-212.557 29.3912-212.518ZM36.7353-213.081C36.5688-213.056 36.4051-213.013 36.2471-212.955 36.1608-212.927 36.0794-212.899 36.0065-212.882 34.3401-212.148 33.356-209.311 35.4516-208.472 36.2744-208.121 37.3493-208.324 37.9445-208.955 39.0751-210.015 38.6847-212.91 36.8668-213.091 36.8375-213.075 36.7393-213.083 36.7353-213.081ZM26.5563-210.862 26.5563-210.862C26.5453-210.857 26.5339-210.852 26.5229-210.847 26.525-210.846 26.527-210.846 26.5286-210.845 26.5327-210.843 26.5364-210.84 26.54-210.837 26.5416-210.836 26.5433-210.835 26.5453-210.834 26.5486-210.843 26.5526-210.853 26.5563-210.862L26.5563-210.862Z" transform="matrix(1 0 0 1.00696 1013.29 710.148)"/></g></svg>