<svg width="123" height="126" xmlns="http://www.w3.org/2000/svg" xmlns:xlink="http://www.w3.org/1999/xlink" xml:space="preserve" overflow="hidden"><defs><clipPath id="clip0"><rect x="524" y="9" width="123" height="126"/></clipPath></defs><g clip-path="url(#clip0)" transform="translate(-524 -9)"><path d="M34.7524 42.2587C34.7524 42.2587 36.456 45.4699 35.4786 48.1785 34.5446 50.7674 33.2784 55.3724 32.0221 51.4074 31.9195 51.0845 31.565 50.9154 31.2499 51.0391 29.597 51.687 24.5079 53.6563 15.8065 56.7925 12.7512 57.8935 10.7595 60.7035 9.87947 62.3011 7.45696 66.6989 4.64901 78.9298 4.2458 91.2647 4.0248 98.0192 4.04519 104.89 6.3618 110.323 6.3618 110.323 8.17786 113.706 12.102 113.959 12.5348 113.986 12.8453 114.389 12.7736 114.818L12.0514 119.125C11.9757 119.643 12.3566 120.116 12.8795 120.152 16.5129 120.398 29.8627 121.168 44.205 120.333 53.6892 119.782 63.7114 119.317 71.4729 116.271L71.0243 107.951C71.0105 107.698 71.2249 107.505 71.4781 107.519 75.3964 107.74 80.8801 108.196 88.5416 104.627 88.5416 104.627 101.212 105.297 103.725 101.59 106.238 97.883 105.573 95.0034 105.573 95.0034 105.649 94.7337 105.806 94.4949 106.021 94.316 106.727 93.7313 108.423 92.1744 109.589 89.8617 113.275 82.5527 118.139 64.0731 118.139 64.0731 118.139 64.0731 119.875 60.072 118.748 57.7843 118.174 56.6188 116.727 56.7438 114.225 56.7793 109.773 56.8424 102.26 56.7096 95.6835 56.8773 90.5208 57.0089 86.6933 57.5127 85.212 60.2279L78.5306 84.8305C78.4247 85.2048 77.8847 85.1739 77.8222 84.7898L75.5779 71.0341C75.5779 71.0341 74.905 63.9718 68.0229 60.5417 61.1409 57.1121 58.2652 55.6618 57.2318 54.8245 56.1985 53.9865 52.9873 54.5449 52.9873 54.5449 52.7374 54.2838 52.0158 49.2263 51.9751 48.8672L51.6824 46.294 35.2563 41.449C34.8478 41.3313 34.7801 41.8358 34.7524 42.2587Z" fill="#FFFFFF" transform="matrix(1 0 0 1.00822 524 9)"/><path d="M19.5419 96.3241C18.6447 94.7153 6.10462 96.1104 4.81607 97.783 4.69044 97.8771 4.61941 98.0284 4.62796 98.1849 4.74175 100.347 4.95552 102.428 5.26203 104.371 5.46988 105.691 5.75074 107.233 6.25524 108.66 6.37692 109.039 6.94194 109.083 7.1169 108.722 9.42693 104.741 12.4717 101.726 15.9374 99.0071 16.6589 98.3658 19.5629 97.1976 19.5419 96.3241Z" fill="#FFFFFF" transform="matrix(1 0 0 1.00822 524 9)"/><path d="M61.6151 117.723C61.0415 116.481 61.2099 115.012 61.1895 113.62 61.202 110.691 61.4125 107.745 61.398 104.805 61.3862 104.095 61.3737 103.362 61.4612 102.685 61.5046 102.4 61.2474 102.125 60.9593 102.154 56.6747 102.478 51.589 102.836 46.9945 103.458 45.6054 103.655 44.1682 103.858 42.7659 103.784 41.3536 104.641 39.9342 105.52 38.1228 106.457 37.8952 106.58 37.809 106.862 37.9287 107.091 39.4363 109.975 39.0186 116.563 38.718 119.021 38.5556 120.349 38.2135 121.648 39.2528 121.704 46.5723 121.365 53.8477 121.199 61.031 119.651 61.3717 119.567 61.9032 119.147 61.8249 118.854 61.8966 118.496 61.6098 118.109 61.6151 117.723Z" fill="#FFFFFF" transform="matrix(1 0 0 1.00822 524 9)"/><path d="M61.7769 97.5758C60.9554 97.4884 60.195 97.2838 59.5175 96.9694 59.3873 96.9089 59.236 96.9115 59.1071 96.976 57.4607 97.8528 55.2855 98.5026 53.9043 98.0685 53.4445 97.9751 52.8893 98.8631 52.2132 99.0775 51.6376 99.2097 51.4857 100.058 52.1724 100.11 54.2989 99.8609 60.8843 99.2367 61.7138 99.1709 62.2367 99.1525 62.1531 98.4322 62.1966 98.081 62.2163 97.8271 62.0301 97.6028 61.7769 97.5758Z" fill="#FFFFFF" transform="matrix(1 0 0 1.00822 524 9)"/><path d="M61.2185 87.1162C61.4303 87.0143 61.571 86.8058 61.5855 86.5716 62.1242 77.8202 59.2419 66.4226 57.664 59.0499 57.591 58.6848 57.0858 58.5506 56.8477 58.8446 51.7514 64.5783 38.9298 59.0788 36.2126 57.8659 35.574 57.7186 33.9316 56.4307 33.4547 56.751 35.3188 68.0683 36.8198 81.4076 37.0072 94.6021 37.0118 94.9073 37.2999 95.1277 37.5952 95.0507 45.2719 93.0479 53.9108 90.6352 61.2185 87.1162Z" fill="#FFFFFF" transform="matrix(1 0 0 1.00822 524 9)"/><path d="M38.0241 107.203C37.9741 106.899 37.6084 106.72 37.3387 106.874 33.9809 108.672 30.381 110.075 26.9909 111.324 22.7155 112.909 18.1106 114.375 13.4129 114.362 13.1478 114.357 12.9176 114.602 12.9426 114.867 13.2879 115.938 11.8087 120.741 12.8676 120.671 21.2869 121.565 29.5799 121.917 38.009 121.736 38.3056 121.738 38.891 121.343 38.8016 121.06 39.4521 116.467 38.7614 111.506 38.0241 107.203Z" fill="#FFFFFF" transform="matrix(1 0 0 1.00822 524 9)"/><path d="M71.1979 116.537C70.4705 114.251 70.698 111.466 70.4678 109.174 70.4422 106.873 70.1422 104.301 70.6993 102.078 70.8197 101.77 70.5461 101.411 70.2152 101.451 68.0723 101.636 65.8892 101.795 63.7778 101.949 63.1786 102.124 61.7427 101.705 61.7302 102.601 61.8381 107.223 61.3007 111.949 61.329 116.732 61.3342 117.639 61.2034 118.239 61.4125 118.889 61.5237 119.233 62.0025 119.442 62.3321 119.299 63.812 118.859 65.5846 118.386 67.5145 118.206 68.2413 118.136 71.9543 117.827 71.1979 116.537Z" fill="#FFFFFF" transform="matrix(1 0 0 1.00822 524 9)"/><path d="M72.0951 97.2003C66.7929 95.5644 70.2041 95.2138 64.5454 97.3956 63.6712 97.6133 63.293 97.6863 62.3564 97.5857 62.1005 97.5528 61.8512 97.7594 61.8368 98.0172 61.8032 98.4158 61.6414 99.2294 62.2933 99.1814 65.1269 98.9473 68.2854 98.6072 72.0675 98.1303 72.5851 98.079 72.6141 97.2825 72.0951 97.2003Z" fill="#FFFFFF" transform="matrix(1 0 0 1.00822 524 9)"/><path d="M77.5768 86.8202C76.7382 85.8718 76.7382 83.9241 76.4771 82.5659 75.2438 67.7605 74.8004 63.224 59.4445 56.655 59.0689 56.5142 56.6872 54.76 56.4879 54.6942 55.8545 54.4975 54.0365 54.2002 53.6635 54.7468 53.4978 55.74 55.6092 57.2976 56.3445 57.8705 56.4583 57.9488 56.724 57.9876 57.0549 57.9942 57.4693 58.0021 57.8271 58.2875 57.9277 58.6901 59.9819 66.8798 61.8868 76.3093 61.8769 86.0329 61.8683 86.3493 62.2143 86.5946 62.5103 86.4756 65.5504 85.2732 68.094 86.0711 71.9491 87.7003 72.0885 87.7589 72.6805 87.6056 72.8916 88.114 73.1725 88.7902 74.0249 88.656 76.2482 90.455 76.4994 90.6813 76.8191 90.651 76.8941 90.3221 77.0263 89.35 77.8958 87.4694 77.5768 86.8202Z" fill="#FFFFFF" transform="matrix(1 0 0 1.00822 524 9)"/><path d="M19.6109 95.8933C19.7576 95.9321 22.1163 97.02 22.7274 97.1608 23.3575 97.3055 24.0093 97.4555 24.6717 97.5436 25.4367 97.7008 26.1924 97.7699 26.9416 97.7699 29.7607 97.7699 32.474 96.7898 35.1168 95.8348 35.5621 95.6736 36.5869 95.4112 36.8474 95.0132 36.9802 94.8106 36.5955 91.9277 36.581 90.6931 36.558 88.7356 36.5336 86.7111 36.4567 84.7174 36.2232 78.645 35.7654 73.0883 35.0576 67.7329 34.5689 63.6844 33.7132 59.6438 32.8851 55.7361 32.5779 54.2871 32.2609 52.7887 31.9668 51.3127 31.9353 51.1529 31.8235 51.0213 31.6709 50.9641 31.5183 50.9069 31.3472 50.9319 31.2183 51.0305 29.8272 52.0948 28.0743 52.6782 26.3792 53.2426 26.3792 53.2426 23.8179 54.1095 22.6945 54.4614 19.0157 55.6138 15.2125 56.805 12.3941 59.6182 12.3868 59.6254 12.3796 59.6333 12.373 59.6405 7.51155 65.1768 6.41179 73.2574 5.4416 80.3867L5.32386 81.2484C5.3232 81.253 5.32255 81.2576 5.32255 81.2616 4.66545 87.3392 4.42471 92.2434 4.56613 96.6964 4.57139 96.8589 4.66019 97.0075 4.80095 97.0891 4.94171 97.1707 5.1147 97.1739 5.25809 97.0976 7.28463 96.0216 12.3289 95.5717 12.3289 95.5717 14.8284 95.3204 17.243 95.2658 19.6109 95.8933Z" fill="#FFFFFF" transform="matrix(1 0 0 1.00822 524 9)"/><path d="M118.74 59.0216C119.557 55.7736 114.108 56.7313 111.655 56.8069 103.596 57.0641 96.232 57.0516 89.8906 57.3423 85.7336 57.8633 84.9489 61.1435 84.0222 64.5428 80.7978 75.4161 78.351 86.4762 75.3918 97.2779 75.3615 97.3877 74.44 97.6548 74.221 97.7304 66.0655 99.2649 57.8639 99.1768 49.717 100.556 47.0978 100.74 44.3971 101.324 41.6661 101.736 40.7544 102.111 41.6477 103.117 42.2304 103.595 42.6047 103.792 43.1151 103.648 43.5591 103.726 48.585 103.258 53.6168 102.555 58.5947 102.268 61.3507 102.066 64.1974 101.791 66.9659 101.61 69.5726 101.43 72.2674 101.244 74.8708 100.812 75.2799 100.732 76.7908 99.9674 77.4308 100.095 79.0199 99.9799 80.5841 99.7438 82.1739 99.5392 84.8555 99.236 87.4984 98.5145 90.1768 98.3112 91.2246 97.8172 92.3756 97.4745 93.4629 96.9904 96.0084 96.015 95.9334 91.1785 97.0049 90.8437 98.6203 92.1961 97.8534 88.8093 98.5743 88.3535 99.0558 88.0226 99.3143 89 99.8155 88.8178 100.01 88.76 100.146 88.5843 100.152 88.3824 100.225 86.5657 101.488 85.7435 102.264 87.303 102.679 87.9009 103.504 87.0163 104.052 87.5385 106.25 89.0612 105.145 94.8277 106.522 93.9602 106.765 93.8174 107.005 93.6464 107.066 93.3636 107.962 92.3197 108.62 91.3883 109.133 90.432 113.055 80.8498 117.381 70.2896 118.74 59.0216Z" fill="#FFFFFF" transform="matrix(1 0 0 1.00822 524 9)"/><path d="M119.473 58.029C119.392 57.5837 119.249 57.0437 118.884 56.753 118.383 56.3544 117.72 56.0834 117.078 56.1301 108.157 56.1577 99.2347 56.3347 90.3162 56.5405 89.7098 56.5247 89.0994 56.6622 88.5343 56.878 85.2107 57.6521 84.3116 60.5449 83.4999 63.468 81.451 70.1685 79.7731 76.9704 78.0708 83.765 76.5264 72.228 77.7676 63.7015 65.4518 58.0534 62.9898 56.7563 60.2878 55.9985 57.8462 54.6633 56.8089 53.63 54.9047 53.5556 53.503 53.9733 52.8703 52.7328 52.5309 51.3555 52.4875 49.9643 52.4789 49.6828 52.0441 49.5111 51.9113 49.8084 50.6056 52.7854 53.2722 56.824 55.771 58.4092 54.0325 60.4311 50.8049 60.3851 48.3535 60.2496 43.2039 59.8306 38.1017 58.2106 33.6415 55.6078 33.483 54.958 33.3139 54.3107 33.1311 53.6675 35.2129 51.6666 36.4508 48.8119 36.189 45.906 36.0739 44.6957 35.7522 42.7382 34.9629 41.8082 34.7202 41.5464 34.3078 41.7615 34.2927 42.0857 34.2617 42.7507 34.5604 43.4328 34.6873 44.0833 35.3464 47.0498 34.8393 50.0288 32.7121 52.2829 32.5292 51.7166 32.3345 51.1542 32.1234 50.5971 32.005 50.284 31.6649 50.2689 31.4913 50.4464 25.3998 52.8413 18.4546 53.3741 13.0071 57.2588 4.28987 64.1369 3.69329 82.089 3.14012 92.5171 3.18748 98.4835 3.1263 105.99 5.9678 111.324 7.25108 113.629 9.41114 114.756 12.0402 114.805 11.7863 116.228 11.4725 117.609 11.2233 119.029 11.1108 119.688 10.9299 120.335 11.2292 120.958 11.5219 121.569 12.3243 121.413 12.6532 120.958 12.9959 120.484 12.9321 119.74 13.0064 119.171 13.1886 117.724 13.5182 116.301 13.4129 114.831 18.158 114.845 22.7511 113.397 27.1547 111.764 30.7007 110.457 34.2243 109.075 37.561 107.288 38.305 111.272 38.4523 115.354 38.1458 119.39 38.08 120.196 39.337 120.192 39.4021 119.39 39.5843 116.076 39.8862 109.818 38.3471 106.871 39.7474 106.118 41.1353 105.346 42.5014 104.534 42.631 104.457 42.7073 104.358 42.7415 104.253 44.9463 104.37 47.1235 103.837 49.3125 103.645 53.1965 103.204 57.0957 102.911 60.9942 102.623 60.8515 103.728 60.9606 104.907 60.931 106.011 60.8962 107.295 60.8488 108.578 60.8041 109.861 60.7607 111.11 60.7416 112.361 60.7192 113.61 60.6962 114.881 60.5726 116.207 60.7863 117.463 60.8883 118.063 61.8953 118.063 61.9979 117.463 62.2077 116.238 62.1111 114.952 62.1275 113.712 62.1775 111.18 62.2077 108.646 62.2117 106.113 62.2156 104.953 62.3584 103.695 62.1972 102.536 64.8841 102.337 67.5724 102.152 70.2567 101.918 69.8752 102.988 69.9587 104.293 69.9245 105.402 69.8857 106.664 69.9456 107.932 69.9982 109.192 70.0778 111.094 70.2041 112.993 70.3685 114.889 70.4257 115.549 70.4435 116.184 70.7881 116.769 71.1394 117.365 71.9754 117.193 72.1878 116.586 72.3957 115.992 72.2983 115.407 72.2457 114.795 72.1938 114.191 72.1457 113.588 72.1017 112.983 71.9767 111.232 71.8748 109.479 71.8406 107.724 73.2521 107.795 74.6321 108.164 76.0416 108.235 80.4249 108.343 84.6128 106.71 88.6804 105.268 89.7492 105.555 90.8595 105.48 91.9593 105.473 93.1768 105.451 94.3949 105.387 95.6045 105.247 102.284 104.564 106.213 102.209 106.245 94.979 107.053 94.591 107.899 94.0582 108.206 93.1722 109.6 91.5324 110.436 89.544 111.183 87.5484 112.148 85.1476 113.07 82.7284 113.937 80.2901 116.05 74.2506 118.021 68.115 119.198 61.8164 119.405 60.6028 119.699 59.261 119.473 58.029ZM59.1985 57.0562C60.4529 57.8278 61.7888 58.4112 63.122 59.0301 75.251 64.0416 74.8222 71.1729 76.01 82.633 76.2876 84.0958 76.2725 86.0487 77.223 87.1307 76.9631 88.1561 76.702 89.1809 76.4369 90.2044 75.472 89.3829 74.3966 88.683 73.2909 88.0614 72.9337 83.0197 72.9804 77.8228 71.1618 73.0173 71.0874 72.8127 70.7671 72.893 70.8302 73.1087 72.2082 77.763 72.1168 82.6428 72.1359 87.4438 69.1622 85.9198 65.6149 84.8358 62.3478 86.0329 62.3584 75.8601 60.2785 65.7807 57.7199 55.9782 58.1895 56.3695 58.6782 56.7365 59.1985 57.0562ZM55.1126 56.2288C54.7317 55.8361 54.389 55.4105 54.0838 54.9586 54.8613 54.9264 55.6065 54.883 56.3314 55.1375 56.3866 55.9209 56.5964 56.6734 56.7931 57.4324 56.7372 57.4476 56.6833 57.4699 56.6326 57.4969 56.1169 57.0983 55.5552 56.7234 55.1126 56.2288ZM36.2429 58.4C41.6365 60.8258 52.6433 64.425 57.2036 59.1531 58.7118 65.8793 60.0174 72.6713 60.5713 79.5501 60.8265 81.9029 60.6614 84.3122 60.9462 86.6413 53.6241 90.432 45.3936 91.9014 37.6104 94.466 37.69 81.9897 36.6685 69.47 34.0223 57.2641 34.7307 57.708 35.5128 58.0586 36.2429 58.4ZM5.79087 81.3135C6.77881 74.1098 7.76281 65.6064 12.7269 59.953 16.3268 56.359 21.6329 55.475 26.2352 53.7878 28.0499 53.1814 29.9679 52.5809 31.5044 51.4061 32.5891 56.8563 33.9217 62.2643 34.5886 67.7908 35.3319 73.4093 35.7673 79.0739 35.9851 84.7365 36.11 87.9812 36.0936 91.2252 36.1666 94.4699 36.1706 94.6508 36.2278 94.7955 36.3159 94.906 32.6062 96.2024 28.7557 97.9093 24.75 97.0799 23.4608 96.9095 22.2137 96.4971 20.9258 96.3268 21.0172 95.7012 20.9113 95.0869 20.8686 94.4568 20.8199 93.7385 20.8041 93.0183 20.7942 92.2987 20.7916 88.2107 20.2351 84.0938 20.8587 80.0276 20.9251 79.6073 20.3108 79.4146 20.2055 79.8474 19.5537 82.5317 19.5294 85.312 19.5807 88.0594 19.6629 90.4576 19.5235 92.8604 19.678 95.2559 17.1148 94.5758 14.5278 94.8804 11.9402 95.1382 9.59334 95.346 7.15571 95.5572 5.03576 96.6826 4.87396 91.5626 5.24427 86.3671 5.79087 81.3135ZM6.69988 108.503C6.21775 107.14 5.94018 105.646 5.72706 104.297 5.40805 102.277 5.20744 100.227 5.09825 98.1599 7.38395 96.4484 11.4022 96.5201 14.1864 96.1814 15.8164 96.0387 17.4844 96.0202 19.0808 96.4215 18.0152 97.2562 16.7951 97.862 15.6743 98.6157 14.2588 99.5563 13.0788 100.778 11.8817 101.974 9.92288 103.946 7.99895 106.023 6.69988 108.503ZM29.6956 108.802C24.0817 110.881 15.2783 114.523 9.40983 112.287 8.39623 111.702 7.68125 110.687 7.15834 109.615 8.62315 106.948 10.6846 104.686 12.8341 102.557 14.0398 101.36 15.2145 100.183 16.6583 99.2715 17.3344 98.8446 18.0297 98.4474 18.7019 98.0132 19.2202 97.6784 19.9273 97.2831 20.3595 96.7773 20.5476 96.8063 20.7535 96.7379 20.8547 96.578 23.4305 97.9777 26.4536 98.5329 29.3608 98.1047 31.4913 97.7554 33.5139 96.9654 35.5411 96.2511 41.8805 93.9759 48.533 92.694 54.8383 90.3241 56.6866 89.621 58.5743 89.075 60.3213 88.1364 65.9168 84.474 71.3841 87.5247 76.2843 90.7911 76.1061 91.4758 75.9252 92.1605 75.7437 92.8446 73.9079 90.9384 71.8642 88.781 69.0602 88.6363 67.8269 88.5824 66.6127 88.829 65.3906 88.9494 65.1196 88.9764 65.117 89.3493 65.3906 89.3736 66.4983 89.471 67.6105 89.4763 68.7188 89.5539 71.8853 89.765 73.3462 92.0928 75.424 94.0424 75.303 94.4883 75.1931 94.9382 75.0662 95.3802 73.3119 93.38 69.2819 91.0989 66.6357 92.0494 64.9565 91.6764 63.2042 91.7271 61.5704 92.3395 61.4908 92.3697 61.4947 92.5013 61.5921 92.498 65.536 92.2454 69.6292 93.3274 72.0918 96.605 71.1907 96.4188 70.3435 96.0446 69.5121 95.6605 67.1139 94.4055 64.4888 93.7352 61.9236 94.9553 60.4923 95.6072 59.1663 96.4662 57.7317 97.1128 55.9749 97.904 54.2687 97.9935 52.4263 97.4502 52.1796 97.3779 52.0514 97.7199 52.2566 97.8534 52.4769 97.9961 52.6986 98.1159 52.9209 98.2191 51.9705 98.8499 50.9759 99.3307 49.9985 99.9141 46.9044 100.318 43.8196 100.79 40.7452 101.326 40.2322 101.416 40.298 102.104 40.6873 102.295 40.8136 102.897 41.1557 103.381 41.5977 103.796 37.6472 105.508 33.7303 107.297 29.6956 108.802ZM73.5954 96.8694C72.6187 95.1981 70.9789 93.9075 69.2891 93.015 70.5934 93.3596 71.832 94.0404 72.8956 94.8771 73.5382 95.3743 74.044 96.0038 74.6689 96.5129 74.5327 96.8273 74.3716 97.1312 74.1723 97.4199 73.9519 97.4449 73.7323 97.4693 73.5119 97.4943 73.5303 97.4634 73.5448 97.4305 73.5553 97.3969 73.6599 97.2503 73.6967 97.0536 73.5954 96.8694ZM61.1053 98.7479C60.7896 98.7736 59.2932 98.8782 57.5699 99.0452 55.5842 99.238 53.2978 99.5024 52.1724 99.6392 52.6848 99.3485 53.3971 99.0117 53.7892 98.5263 55.2665 98.8946 56.7648 98.5269 58.204 97.9165 58.252 97.8962 58.9453 97.5811 58.9894 97.56 59.0999 97.5068 59.2097 97.4528 59.3189 97.3976 59.8786 97.6567 60.4857 97.8416 61.1113 97.956 61.1067 97.9869 61.1034 98.0185 61.1034 98.0514 61.1034 98.275 61.1034 98.498 61.1034 98.7216 61.104 98.7302 61.1047 98.7387 61.1053 98.7479ZM60.1891 96.9457C62.3005 95.7078 64.7302 94.6791 67.1448 95.7065 64.3724 97.1075 63.3476 97.4699 60.1891 96.9457ZM62.3505 98.0889C63.1358 98.1159 63.9232 98.0363 64.6592 97.8521 65.5274 97.6179 66.3154 97.1667 67.133 96.8043 67.5895 96.5945 68.0775 96.4991 68.5334 96.2952 69.6108 96.7839 70.7717 97.4298 72.0083 97.6627 68.7965 98.0672 65.5754 98.3737 62.3511 98.6447 62.3505 98.4599 62.3505 98.2744 62.3505 98.0889ZM62.9464 101.444C57.1115 101.941 51.2614 102.266 45.4594 103.098 44.8187 103.181 44.1734 103.25 43.5262 103.254 43.1908 103.256 42.8204 103.17 42.4955 103.227 42.1522 102.952 41.8358 102.618 41.7167 102.201 44.3096 101.755 46.909 101.351 49.5157 100.994 49.6545 101.08 49.8354 101.039 49.9715 100.934 58.0435 99.751 66.2437 99.657 74.2769 98.1941 74.4492 98.329 74.6919 98.3895 74.9123 98.3217 74.8952 98.9637 74.8781 99.6057 74.861 100.248 74.8235 100.279 74.7919 100.312 74.7649 100.348 70.8861 100.991 66.8673 101.079 62.9464 101.444ZM104.937 96.4215C104.745 98.7401 103.99 101.072 101.881 102.299 98.4132 104.181 94.2588 104.186 90.409 104.224 89.7512 104.299 88.1561 103.574 87.9378 104.397 84.0458 105.789 80.0322 107.324 75.8423 107.31 74.4847 107.259 73.16 106.999 71.8307 107.345 71.8129 106.125 71.7491 104.906 71.7261 103.685 71.711 103.071 71.7353 102.375 71.5104 101.798 72.6634 101.644 73.8546 101.62 74.982 101.314 75.1458 101.407 75.3523 101.417 75.5634 101.279 76.0936 100.934 76.5948 100.972 77.2012 100.925 81.0353 100.515 84.8509 99.9451 88.6481 99.2682 88.4982 99.5872 88.4331 99.9385 88.4995 100.317 88.5422 100.561 88.908 100.652 89.0658 100.467 89.4118 100.061 89.646 99.578 90.0432 99.2123 91.2121 98.2027 92.8624 98.0863 94.1575 97.295 96.3123 95.99 96.0301 93.851 96.947 91.8994 97.3897 93.305 97.3397 94.8106 97.2364 96.2636 97.0792 97.6567 96.8983 99.9253 95.1586 100.133 94.9672 100.162 94.979 100.421 95.1093 100.51 96.509 101.463 97.5916 99.1715 97.8942 98.1862 98.4559 96.355 98.5302 94.3443 98.2112 92.4618 98.327 91.2232 98.3737 89.9557 98.7414 88.7619 99.1886 89.2894 99.2538 90.0465 99.3952 90.703 99.5945 91.8646 99.7944 93.0347 99.9477 94.2022 100.138 95.6315 100.196 97.0858 100.011 98.5191 99.9477 99.013 99.753 99.5201 99.88 100.013 99.949 100.281 100.311 100.38 100.504 100.177 101.923 98.0297 100.631 91.8619 100.071 89.3204 100.374 88.9731 100.578 86.5354 101.307 86.8689 101.852 87.232 102.189 89.0869 102.351 89.7571 102.817 91.7955 102.909 93.8957 102.566 95.9637 102.424 96.9339 102.181 97.8817 102.26 98.867 102.289 99.2176 102.796 99.436 102.983 99.063 103.399 98.231 103.537 97.3575 103.673 96.4445 104.178 93.5576 103.943 90.5806 102.971 87.8121 105.337 87.6799 105.087 94.7968 104.937 96.4215ZM118.227 59.9023C116.791 69.1582 113.507 78.0484 110.154 86.7571 109.693 87.9115 109.275 89.1125 108.687 90.209 108.134 91.2384 107.437 92.1711 106.678 93.0551 106.603 93.1426 106.559 93.2439 106.541 93.3484 106.448 93.4247 106.348 93.4938 106.244 93.5589 106.187 91.6613 105.658 85.8086 102.643 87.0689 101.406 84.897 99.7208 86.3026 99.651 88.366 99.4596 88.0923 99.2097 87.8904 98.8769 87.8358 97.5745 87.6497 97.7219 89.8512 97.5495 90.6957 96.2899 89.2533 95.3895 93.04 95.2007 93.8543 94.8869 95.052 94.3785 96.0097 93.2281 96.5662 92.2171 97.0555 91.095 97.2845 90.1123 97.8416 87.4491 98.0396 84.7634 98.7683 82.0831 99.0722 80.8334 99.2551 79.579 99.3853 78.3267 99.5478 77.4959 99.6557 76.6099 99.6057 75.8035 99.8188 75.7838 99.0703 75.7634 98.3211 75.7437 97.5725 75.7417 97.4903 75.7127 97.4147 75.6674 97.3515 76.0607 96.5537 76.2791 95.6861 76.5152 94.8185 78.8621 86.1901 80.8228 77.4604 83.2355 68.8497 83.9228 66.397 84.5832 63.9087 85.435 61.5072 85.8014 60.4746 86.3302 59.3853 87.2774 58.7703 88.0298 58.3415 88.9856 58.0251 89.8104 57.8179 91.1502 57.733 92.5032 57.7633 93.8477 57.7133 101.171 57.5679 108.495 57.4364 115.82 57.3857 116.369 57.3746 116.953 57.3423 117.497 57.3996 117.688 57.4647 117.937 57.6416 118.098 57.7534 118.369 58.4309 118.313 59.1979 118.227 59.9023Z" transform="matrix(1 0 0 1.00822 524 9)"/><path d="M39.5849 65.3623C43.0349 67.8368 49.0323 67.9848 52.696 65.8885 53.2735 65.5419 52.8999 64.5329 52.223 64.7671 49.8459 65.5886 47.4701 66.1358 44.9332 65.9287 43.1421 65.8037 41.3944 65.1939 39.9125 64.181 39.6152 63.9778 38.8397 63.3509 38.6325 64.0054 38.4589 64.5539 39.2113 65.0709 39.5849 65.3623Z" transform="matrix(1 0 0 1.00822 524 9)"/><path d="M-2306.12-446.418C-2306.28-454.171-2308.99-460.936-2315.62-465.727-2316.04-466.033-2316.67-465.885-2317.02-465.535-2317.33-465.473-2317.6-465.27-2317.75-464.986-2321.66-457.84-2325.78-450.811-2330.11-443.9-2332.89-439.435-2336.26-434.964-2336.7-429.552-2336.78-429.449-2334.75-428.286-2334.46-429.156-2333.45-429.127-2332.45-428.868-2331.48-428.568-2329.11-427.828-2326.71-427.095-2324.3-426.53-2316.34-424.418-2307.8-427.105-2307.16-436.379-2306.3-437.582-2305.82-442.92-2305.94-444.577L-2306.12-446.418Z" fill="#FFFFFF" transform="matrix(1 0 0 1.00822 2892.57 487.137)"/><path d="M-2301.11-425.543C-2302.23-430.828-2302.95-436.18-2303.6-441.54-2303.92-444.135-2304.17-446.738-2304.45-449.336-2304.72-451.757-2305.04-454.184-2305.67-456.54-2306.26-458.73-2307.11-460.897-2308.38-462.788-2309.57-464.549-2311.05-466.09-2312.77-467.346-2316.15-469.851-2320.48-471.184-2324.68-470.742-2325.32-470.674-2325.93-470.687-2326-470.681-2343.11-469.126-2347.14-439.361-2347.5-433.359-2347.53-432.892-2347.56-432.425-2347.57-431.96-2347.7-430.918-2347.79-429.874-2347.84-428.828-2347.89-427.618-2347.87-426.407-2347.75-425.201-2347.64-423.967-2347.51-422.702-2347-421.568-2346.68-420.869-2331.96-421.826-2331.81-422.651-2331.48-424.323-2331.36-426.028-2331.44-427.729-2331.47-428.54-2331.57-429.347-2331.74-430.142-2331.79-430.359-2331.84-430.767-2331.97-431.089-2330.63-433.641-2329.15-436.119-2327.63-438.569-2324.46-443.67-2321.1-448.676-2318.51-454.109-2317.21-456.831-2315.94-459.721-2315.33-462.704L-2315.23-462.685C-2315.24-462.646-2315.23-462.604-2315.2-462.58-2312.39-460.638-2310.51-457.693-2309.29-454.541-2307.87-450.854-2307.19-446.924-2307.28-442.975-2307.44-436.726-2309.81-429.002-2316.51-427.027-2318.04-426.576-2319.69-426.449-2321.26-426.778-2322-426.928-2322.72-427.18-2323.39-427.53-2324.13-427.923-2324.74-428.481-2325.43-428.939-2326.07-429.359-2326.81-428.541-2326.45-427.92-2325.64-426.549-2323.9-425.71-2322.42-425.298-2320.83-424.856-2319.15-424.836-2317.53-425.116-2317.41-425.137-2317.29-425.161-2317.16-425.187-2317.13-424.764-2316.96-424.364-2316.68-424.047-2316.54-423.896-2316.39-423.767-2316.22-423.663-2316.2-423.267-2315.94-422.868-2315.52-422.781-2313.31-422.319-2304.09-423.53-2301.88-424.19-2301.28-424.366-2300.98-424.949-2301.11-425.543" transform="matrix(1 0 0 1.00822 2892.57 487.137)"/><path d="M53.4747 40.1592C53.8405 40.196 53.9352 42.264 53.6063 42.5271 53.2774 42.7902 52.7183 43.152 52.4223 42.5271 52.1263 41.9022 53.1459 40.1263 53.4747 40.1592Z" fill="#FFFFFF" transform="matrix(1 0 0 1.00822 524 9)"/><path d="M45.8928 26.5101C46.713 26.2681 48.877 27.0363 49.1901 28.5985 49.5631 30.4626 48.7626 32.2326 46.4933 32.4957 44.6891 32.7048 43.838 31.2624 43.8459 30.0041 43.8558 28.4419 44.4458 26.9377 45.8928 26.5101Z" fill="#FFFFFF" transform="matrix(1 0 0 1.00822 524 9)"/><path d="M57.6666 26.518C58.6204 26.2174 60.2187 27.1402 60.5278 27.8579 60.9633 28.8695 61.3829 30.5546 59.8865 31.8951 58.8085 32.8607 56.7938 32.5726 56.236 31.7965 55.3974 30.629 55.2165 27.2909 57.6666 26.518Z" fill="#FFFFFF" transform="matrix(1 0 0 1.00822 524 9)"/><path d="M52.3783 34.9945C51.6889 34.5919 52.3079 33.5336 53.0031 33.925 53.4478 34.1756 53.9549 34.2137 54.4403 34.0559 54.6574 33.9855 54.8554 33.8684 55.0343 33.7263 55.2842 33.5277 55.1783 33.4468 55.0507 33.1554 54.7975 32.5766 54.4772 32.0287 54.2114 31.4551 54.0338 31.0716 53.8056 30.6869 54.0871 30.3172 54.1864 30.1863 54.3528 30.1791 54.4508 30.3172 54.8284 30.8493 55.129 31.4873 55.4151 32.103 55.5921 32.4838 55.765 32.8805 56.011 33.2232 56.2459 33.5501 56.3814 33.8474 56.1722 34.24 55.4769 35.5444 53.5247 35.6641 52.3783 34.9945L52.3783 34.9945Z" transform="matrix(1 0 0 1.00822 524 9)"/><path d="M43.3124 25.0887C43.7742 24.0159 44.5299 22.9925 45.61 22.4912 46.2171 22.2097 46.9696 22.0775 47.6142 22.3097 48.1976 22.5195 48.5436 23.0102 48.9277 23.466 49.0428 23.6028 49.2895 23.5272 49.3276 23.3601 49.5039 22.5892 48.9645 21.9381 48.3153 21.5717 47.5208 21.1238 46.5164 21.1521 45.6817 21.4665 44.1846 22.0302 43.0007 23.3542 42.9184 24.9822 42.9079 25.1815 43.2283 25.2841 43.3124 25.0887L43.3124 25.0887Z" transform="matrix(1 0 0 1.00822 524 9)"/><path d="M55.9597 24.9795C56.6228 24.3435 57.4969 23.5108 58.4974 23.8482 58.9348 23.9955 59.2702 24.3218 59.5057 24.7098 59.778 25.1584 59.8411 25.7261 60.1523 26.1444 60.2832 26.3207 60.5226 26.2917 60.6022 26.0859 60.8324 25.4899 60.5463 24.7079 60.2266 24.1902 59.8997 23.6607 59.3912 23.2246 58.7966 23.028 57.4666 22.5879 56.3255 23.614 55.4927 24.5138 55.206 24.825 55.6526 25.2749 55.9597 24.9795L55.9597 24.9795Z" transform="matrix(1 0 0 1.00822 524 9)"/><path d="M49.4506 28.5307C49.0974 27.552 48.0884 26.5456 46.9873 26.3121 46.9965 26.2464 46.959 26.1701 46.8794 26.1681 45.4528 26.1437 44.1938 26.9824 43.6472 28.3097 43.1079 29.62 43.2874 31.4926 44.4951 32.3898 45.6133 33.2205 47.2412 33.0752 48.3285 32.2694 49.4789 31.4183 49.94 29.8844 49.4506 28.5307ZM46.692 32.2286C46.0138 32.3273 45.2383 32.1688 44.7588 31.6498 44.2471 31.096 44.0945 30.2034 44.1498 29.4766 44.2405 28.2854 44.9588 27.2534 45.9869 26.7239 45.9974 26.7272 46.0007 26.7377 46.0125 26.739 46.7301 26.8403 47.3616 26.8732 47.9805 27.3086 48.6133 27.7533 48.9829 28.4156 49.0573 29.1832 49.2 30.6533 48.1575 32.0149 46.692 32.2286Z" transform="matrix(1 0 0 1.00822 524 9)"/><path d="M47.6569 29.1819C47.2544 29.1168 46.934 29.3562 46.8229 29.7436 46.7532 29.9857 46.7525 30.2731 46.836 30.5119 47.0005 30.9828 47.5892 31.1907 47.968 30.8105 48.2377 30.5395 48.3134 30.1633 48.2134 29.8009 48.1772 29.6706 48.1068 29.5608 48.0154 29.4766 48.0055 29.4674 47.945 29.3845 47.9411 29.3779 47.872 29.2766 47.7773 29.201 47.6569 29.1819L47.6569 29.1819Z" transform="matrix(1 0 0 1.00822 524 9)"/><path d="M61.0909 28.6024C60.7738 27.6244 59.8102 26.5522 58.7197 26.3128 58.7289 26.247 58.6914 26.1701 58.6118 26.1687 57.2325 26.1477 56.0617 26.9969 55.5388 28.2663 55.0231 29.518 55.1316 31.3288 56.1992 32.2812 57.2733 33.2396 58.9387 33.0969 60.0253 32.2503 61.1132 31.4031 61.5132 29.9061 61.0909 28.6024ZM58.3744 32.2332C57.6383 32.3286 56.8549 32.0826 56.4484 31.4295 56.0847 30.8441 55.9755 30.0732 56.04 29.3977 56.1472 28.2722 56.7898 27.2521 57.7594 26.7245 57.7692 26.7272 57.7725 26.7377 57.7837 26.739 58.4533 26.8357 59.0334 26.8666 59.609 27.2771 60.2444 27.7303 60.6028 28.4104 60.6706 29.1826 60.7975 30.6158 59.8464 32.0425 58.3744 32.2332Z" transform="matrix(1 0 0 1.00822 524 9)"/><path d="M58.056 29.4503C57.8179 29.7002 57.6791 30.1251 57.8488 30.4494 58.0396 30.8842 58.4138 31.0151 58.7552 30.9552 59.1525 30.8848 59.5057 30.556 59.4741 30.1449 59.4735 30.1383 59.4767 30.2251 59.4649 30.0232 59.4471 29.7213 59.2426 29.4391 58.9722 29.2983 58.6927 29.1523 58.3421 29.1582 58.056 29.4503L58.056 29.4503Z" transform="matrix(1 0 0 1.00822 524 9)"/><path d="M54.7751 39.7126C54.4831 38.7562 53.3228 39.4672 52.9071 39.9125 52.3322 40.5275 51.6574 41.4569 51.8376 42.3515 51.9889 43.1046 52.9183 43.6571 53.5964 43.1572 54.0194 42.8454 54.0654 42.2995 54.1535 41.8213 54.2496 41.3017 54.4699 40.7459 54.2298 40.2519 54.2035 40.1973 54.1634 40.1592 54.1193 40.1283 54.2739 40.0934 54.439 40.0901 54.589 40.0408 54.7225 39.9974 54.8192 39.8566 54.7751 39.7126ZM53.0183 42.3021C52.8183 42.4166 52.8361 41.8562 52.8413 41.8285 52.8999 41.5319 53.0623 41.2339 53.2452 40.9662 53.211 41.1629 53.186 41.3622 53.1518 41.5444 53.1399 41.6023 53.0775 42.2686 53.0183 42.3021Z" transform="matrix(1 0 0 1.00822 524 9)"/></g></svg>