<svg width="87" height="116" xmlns="http://www.w3.org/2000/svg" xmlns:xlink="http://www.w3.org/1999/xlink" xml:space="preserve" overflow="hidden"><defs><clipPath id="clip0"><rect x="670" y="21" width="87" height="116"/></clipPath></defs><g clip-path="url(#clip0)" transform="translate(-670 -21)"><path d="M-2945.08-1613.79C-2940.2-1614.87-2937.31-1614.87-2935.67-1616.53-2934.04-1618.19-2933.74-1621.05-2933.06-1623.25-2932.69-1624.47-2929.03-1625.57-2925.47-1625.4-2922.57-1625.26-2919.66-1624.04-2919.43-1623.25-2918.93-1621.52-2918.12-1614.06-2915.46-1612.91-2912.81-1611.77-2910.75-1612.18-2909.13-1609.44-2907.51-1606.71-2902.18-1595.56-2902.18-1592.97-2902.18-1590.37-2950.62-1591.8-2950.62-1591.8-2950.62-1591.8-2949.96-1612.72-2945.08-1613.79Z" fill="#FFFFFF" transform="matrix(1.00919 0 0 1 3670.22 1685.57)"/><path d="M-2967.81-1551.18C-2970.91-1551.34-2969.55-1555.43-2969.76-1557.46-2969.64-1562.38-2969.63-1567.16-2969.44-1572.14-2968.88-1593.94-2963.94-1610.85-2940.78-1616.9L-2940.78-1616.9C-2939.56-1617.24-2938.1-1617.42-2937.08-1618.16-2936.38-1618.62-2936.42-1619.54-2936.14-1620.27-2935.81-1621.03-2934.93-1621.72-2934.08-1621.52-2933.17-1623.09-2933.25-1621.2-2933.23-1620.41-2933.23-1620.39-2933.22-1620.37-2933.2-1620.36-2931.42-1619.44-2928.68-1619.36-2926.98-1619.08-2924.42-1618.74-2921.8-1619.07-2919.25-1619.25L-2919.25-1619.25C-2919.18-1619.26-2919.16-1619.28-2919.16-1619.3-2919.16-1619.3-2919.17-1619.32-2919.18-1619.34-2919.42-1619.89-2919.21-1621.21-2918.4-1620.77-2918.1-1620.5-2918.05-1620.08-2917.75-1619.82-2915.89-1620.65-2915.52-1618.49-2915.15-1616.88-2915.03-1616.24-2914.9-1615.56-2914.43-1615.07-2914.06-1614.75-2914.03-1614.14-2914.36-1613.78-2901.85-1613.17-2901.5-1605.41-2899.02-1595.41L-2899.02-1595.4C-2895.91-1582.85-2893.12-1570.13-2890.1-1557.58L-2890.1-1557.58C-2889.24-1555.21-2890.47-1554.31-2892.76-1554.21-2895.41-1553.98-2898.68-1552.85-2901.06-1554.36-2901.1-1554.17-2901.13-1553.95-2901.16-1553.75-2901.01-1552.66-2902.19-1551.55-2903.17-1552.37L-2903.17-1552.37C-2912.73-1551.91-2924.8-1551.8-2932.83-1551.72-2937.67-1551.69-2943.25-1551.68-2947.81-1551.84-2949.25-1551.95-2950.63-1551.84-2951.95-1552.3-2952.24-1552.06-2952.75-1552.17-2952.81-1552.57-2953.04-1553.61-2953.29-1554.69-2953.53-1555.74-2953.55-1555.83-2953.67-1555.85-2953.72-1555.76-2954.45-1554.34-2954.57-1552.07-2956.59-1552.1-2960.4-1552.78-2964.12-1552.09-2967.81-1551.18Z" transform="matrix(1.00919 0 0 1 3670.22 1685.57)"/><path d="M-1105.29-845.52C-1107.4-845.507-1109.19-846.109-1110.56-847.098-1112.27-847.706-1114.33-848.645-1115.58-849.633-1116.07-849.507-1116.66-850.026-1117.03-850.299-1119.35-852.036-1120.88-854.35-1121.97-856.803-1122.81-855.75-1123.74-856.017-1124.87-856.543-1127.25-857.893-1127.27-860.638-1126.41-862.761-1128.22-866.805-1129.36-877.594-1126.61-881.904-1126.04-882.551-1125.22-882.938-1124.62-883.597-1124.09-884.174-1123.59-884.763-1122.98-885.226-1121.09-886.652-1117.86-887.413-1115.83-887.774-1107.37-889.6-1100.87-886.316-1093.2-883.54-1093.65-882.456-1094.24-881.429-1094.96-880.497-1093.06-879.787-1093.92-878.19-1095.4-877.378L-1096.11-877.042C-1094.74-872.143-1091.76-860.714-1093.12-856.803-1094.2-850.698-1098.96-845.475-1105.29-845.52" fill="#FFFFFF" transform="matrix(1.00919 0 0 1 1835.54 913.503)"/><path d="M-1126.54-863.3C-1128.23-867.655-1129.47-877.778-1126.82-881.923-1126.26-882.57-1125.25-882.893-1124.65-883.552-1124.12-884.129-1123.76-885.017-1123.15-885.473-1121.27-886.906-1117.92-887.558-1115.89-887.913-1112-888.756-1108.54-888.623-1105.18-887.85-1101.22-886.937-1097.21-885.296-1093.07-883.793-1093.52-882.709-1094.1-881.499-1094.81-880.56-1092.91-879.851-1093.96-878.145-1095.43-877.334L-1096.08-877.042C-1096.25-877.962-1096.71-880.351-1097.68-880.453-1098.98-880.579-1101.52-878.057-1103.1-878.152-1104.35-878.221-1108.57-881.068-1114.21-880.871-1118.93-880.7-1120.68-877.981-1121.87-875.889-1123.04-873.797-1120.1-871.198-1120.1-871.198-1120.1-871.198-1121.87-868.941-1121.87-867.959-1121.87-866.97-1121.69-863.826-1121.69-863.826-1121.69-863.826-1123.17-864.84-1124.26-864.84-1125.34-864.84-1126.32-863.3-1126.32-863.3L-1126.54-863.3Z" fill="#FFFFFF" transform="matrix(1.00919 0 0 1 1835.54 913.503)"/><path d="M-1105.28-844.936C-1107.12-844.936-1109-845.342-1110.54-846.369-1111.05-846.711-1111.5-847.117-1111.89-847.586-1112-847.706-1112-847.897-1111.89-848.023-1111.8-848.157-1111.61-848.188-1111.47-848.106-1103.08-842.997-1094.36-849.393-1093.58-858.679-1093.27-862.007-1093.94-865.284-1094.79-868.922-1095.68-872.986-1096.73-876.389-1097.57-879.692-1097.87-879.812-1098.22-879.774-1098.52-879.667-1099.94-879.128-1101.16-877.518-1102.71-877.518-1103.89-877.442-1104.99-878.025-1106.03-878.488-1108.32-879.622-1110.93-880.288-1113.51-880.237-1116.74-880.205-1119.1-879.204-1120.5-877.264-1121.85-875.597-1121.45-873.81-1120.35-872.485-1119.64-871.642-1119.53-870.932-1120.35-870.133-1120.67-869.784-1120.92-869.385-1121.11-868.954-1121.35-868.39-1121.47-867.788-1121.49-867.179-1121.52-865.911-1121.2-864.726-1121.13-863.471-1121.11-863.294-1121.27-863.135-1121.45-863.154-1121.45-863.154-1121.53-863.154-1121.59-863.192-1121.59-863.192-1121.59-863.192-1121.59-863.198-1121.66-863.224-1121.7-863.275-1121.73-863.338-1122.21-863.788-1122.84-864.073-1123.5-864.092-1126.72-864.143-1126.9-857.221-1123.53-857.196-1122.93-857.145-1122.33-857.646-1121.79-857.57-1121.41-857.456-1121.28-856.961-1121.47-856.638-1120.04-854.216-1118.3-851.719-1115.81-850.35-1115.76-850.343-1115.7-850.35-1115.65-850.362-1115.53-850.375-1115.41-850.388-1115.3-850.337-1115.18-850.293-1115.1-850.21-1115.03-850.109-1114.79-849.735-1115.06-849.253-1115.44-849.095-1116.1-848.809-1116.93-849.481-1117.36-849.798-1119.4-851.275-1121.4-853.804-1122.06-855.985-1122.99-855.414-1124.2-855.598-1125.15-856.017-1127.63-857.227-1127.96-860.619-1127.02-862.951-1128.48-866.659-1128.92-870.691-1128.79-874.646-1128.6-877.435-1128.81-881.613-1126.03-883.35-1125.69-883.578-1125.39-883.838-1125.1-884.123-1123.1-886.88-1118.9-888.015-1115.95-888.503-1110.3-889.695-1104.47-888.738-1099.2-886.532-1097.16-885.777-1094.88-884.94-1092.9-884.218-1092.62-884.117-1092.4-883.8-1092.53-883.508-1092.9-882.557-1093.39-881.651-1093.96-880.808-1092.21-879.476-1093.76-877.41-1095.3-876.782-1093.96-871.103-1091.23-862.875-1092.46-856.752-1093.5-850.534-1098.67-844.81-1105.28-844.936ZM-1110.46-887.901C-1112.61-887.888-1114.75-887.635-1116.86-887.159-1119.37-886.62-1122.28-885.809-1123.99-883.667-1124.29-883.299-1124.64-882.956-1125-882.646L-1125.35-882.361C-1126.56-881.587-1127.04-880.047-1127.2-878.722-1128.05-873.974-1127.44-868.206-1126.52-863.877-1125.49-865.474-1123.36-865.702-1122.11-864.365-1122.89-866.824-1122.75-869.239-1121.04-871.103-1120.99-871.147-1120.96-871.204-1120.94-871.261-1120.93-871.306-1120.94-871.35-1120.96-871.388-1121.02-871.49-1121.09-871.585-1121.17-871.673-1122.06-872.745-1122.72-874.146-1122.53-875.559-1121.08-881.86-1113.07-882.304-1107.93-880.586-1106.41-880.161-1105.09-879.248-1103.59-878.805-1101.4-878.272-1100.15-881.055-1097.96-880.934-1097.38-880.941-1096.8-880.732-1096.38-880.32-1096.3-880.25-1096.24-880.148-1096.21-880.047-1095.92-879.419-1095.84-878.703-1095.62-878.019-1095.18-878.304-1094.71-878.602-1094.51-879.045-1094.44-879.242-1094.45-879.464-1094.54-879.66-1094.57-879.73-1094.62-879.787-1094.67-879.825-1094.84-879.908-1095.04-879.812-1095.21-879.914-1095.6-880.06-1095.72-880.592-1095.43-880.89-1094.78-881.632-1094.24-882.462-1093.82-883.35-1099.15-885.181-1104.67-887.996-1110.46-887.901L-1110.46-887.901ZM-1121.26-859.75-1121.28-859.75C-1121.97-859.782-1122.38-860.46-1123.03-860.644-1123.65-860.891-1124.34-860.974-1125-860.853-1125.3-860.79-1125.49-861.252-1125.18-861.386-1123.89-862-1122.02-862.013-1120.91-860.967-1120.53-860.587-1120.63-859.756-1121.26-859.75Z" transform="matrix(1.00919 0 0 1 1835.54 913.503)"/><path d="M-987.464-220.912C-990.672-220.913-991.927-221.027-987.908-222.112L-987.908-222.112C-985.651-222.996-984.802-220.958-987.464-220.912Z" transform="matrix(1.00919 0 0 1 1719.76 282.792)"/><path d="M-987.122-229.096C-987.87-229.09-990.234-229.83-989.848-230.823-989.746-231.067-989.505-231.28-989.226-231.259-988.504-230.983-987.832-230.098-986.913-230.163-986.197-230.177-985.702-230.918-985.892-231.618-986.089-232.374-986.906-232.922-987.16-233.076-987.591-234.163-985.493-233.258-985.277-232.698-984.244-231.293-985.328-229.007-987.122-229.096Z" transform="matrix(1.00919 0 0 1 1719.76 282.792)"/><path d="M-994.367-234.192C-994.462-234.195-994.557-234.216-994.64-234.253-994.893-234.257-995.153-234.375-995.331-234.55-995.635-234.638-995.749-234.996-995.749-235.285-995.882-235.855-995.711-236.48-995.591-237.064-1001.11-237.126-995.774-237.941-994.152-238.21-989.93-238.776-986.298-238.673-982.165-238.815-981.385-238.881-981.037-237.836-981.518-237.297-981.937-236.828-982.653-237.074-983.205-237.018-982.52-233.708-985.651-233.556-985.119-236.821-985.144-236.879-985.182-236.959-985.195-237.02-987.914-237.02-990.792-237.001-993.499-237.013-993.22-236.413-993.258-235.642-993.543-235.05-993.594-234.795-993.708-234.49-993.974-234.364-994.076-234.253-994.221-234.19-994.367-234.192Z" transform="matrix(1.00919 0 0 1 1719.76 282.792)"/><path d="M35.534-169.882C34.0077-169.872 32.094-170.462 31.1501-171.601 30.0098-173.126 29.6326-176.152 30.1657-178.162L30.16-178.165C30.1568-178.166 30.1537-178.167 30.1505-178.168 30.1442-178.103 30.0497-178.048 29.8779-178.009 29.3182-177.893 28.2355-177.952 27.9503-178.272 27.9078-178.319 27.8907-178.385 27.9034-178.447 24.5248-178.383 21.3117-177.872 18.0079-177.512 17.2688-177.451 17.8399-176.545 17.2827-176.376L17.2631-176.376C17.1198-176.368 16.9797-176.421 16.877-176.522 16.4473-177.064 17.0007-178.127 17.6111-178.225 21.0499-178.582 24.533-179.39 27.9915-178.81 28.1531-179.015 28.3858-179.115 28.7033-179.115 28.988-179.101 29.27-179.054 29.5432-178.974 29.6935-178.937 29.8336-178.901 29.9553-178.883 30.1131-179.768 30.9986-180.25 31.7821-180.511 34.1116-181.281 37.9517-181.074 39.8387-180.274 41.6193-180.479 43.4658-180.623 45.252-180.762L45.2546-180.762C45.9766-180.819 46.7239-180.877 47.4453-180.937 49.0598-181.458 50.8416-181.693 52.4935-181.211 52.5233-181.213 52.5499-181.214 52.5727-181.214 52.7274-181.214 52.7515-181.179 52.7965-181.116 52.8054-181.103 52.8155-181.089 52.8269-181.075 53.5235-180.761 54.0484-180.109 54.2265-179.368 54.5954-179.533 54.9967-179.613 55.4011-179.602 55.6464-179.6 55.8917-179.583 56.1345-179.549 57.4403-178.916 54.5732-178.281 54.3305-178.895 54.6436-176.245 53.6592-172.585 51.0856-171.343 47.9251-169.79 44.6733-172.313 44.8394-175.761 44.7373-175.787 44.6524-175.857 44.6068-175.952 44.3228-176.601 44.6822-177.81 44.9034-178.499 43.7941-178.677 42.6316-178.781 41.5451-178.431 42.1422-176.413 39.8451-171.442 37.8876-170.481 37.1999-170.019 36.3486-169.885 35.534-169.882L35.534-169.882 35.534-169.882ZM34.7246-180.085C33.4974-180.085 32.2264-179.99 31.2446-179.302 31.0069-179.038 30.8249-178.582 30.7172-177.983 30.3933-176.224 30.7907-173.513 31.6091-172.325 31.7618-172.078 32.2283-171.667 32.9275-171.305 35.8592-169.891 38.8771-170.603 40.4346-175.84 41.7847-179.195 39.2727-180.051 36.4005-180.073 35.8478-180.065 35.2875-180.085 34.7246-180.085L34.7246-180.085ZM50.7034-180.521C47.6266-180.575 45.375-179.501 45.4118-176.297 45.4283-176.177 45.4061-176.056 45.349-175.95 45.2983-175.868 45.2223-175.804 45.1329-175.768 45.929-171.478 49.3742-170.466 51.7354-172.839 52.5829-173.722 53.1483-174.981 53.3695-176.48 53.7359-178.492 53.5952-180.604 51.0451-180.518 50.9234-180.52 50.8112-180.521 50.7034-180.521L50.7034-180.521ZM40.1924-180.077 40.1924-180.077C40.4821-179.902 40.7433-179.683 40.9664-179.429 41.1882-179.186 41.3651-178.905 41.4868-178.599 42.1353-179.029 42.9358-179.119 43.6965-179.119 44.1415-179.094 44.7018-179.152 45.1151-178.958 45.4048-179.522 45.8339-180.014 46.3563-180.372 46.0723-180.351 45.782-180.328 45.5012-180.306L45.4999-180.306C43.7517-180.169 41.9476-180.026 40.1924-180.077Z" transform="matrix(1.00919 0 0 1 678.315 222.574)"/></g></svg>